<svg xmlns="http://www.w3.org/2000/svg" viewBox="0 0 114.6 29.55"><title>geico</title><g id="b85f43b3-9523-4a96-8dc9-ee9e0d6079d5" data-name="Layer 2"><g id="f71e482e-1505-48ac-aff1-151db64435e5" data-name="Layer 6"><path d="M114.55,14.94c0,4.6-3.19,6.39-6.3,6.39H92.74c-2.9,0-5.33-3.2-5.33-7V6.12C87.41,1.6,91,0,93.87,0h14.48c2.93,0,6.12,1.87,6.2,5.06S114.55,11.75,114.55,14.94Z" fill="#3b4095"/><path d="M96.61,5.55a2.6,2.6,0,0,0-2.92,2.7v4.63c0,1.87,1.51,3,3.49,3h8.25A3.08,3.08,0,0,0,108.35,13V8.09c0-1.33-.94-2.55-3.11-2.55H96.61Z" fill="#fff"/><path d="M20.6,8.17h6s1-7.71-7-7.71h-11C1.79.46,0,3.46,0,6.65v7.72C0,20,3.76,21.78,7.71,21.78H20.22c4.33,0,6.3-3.19,6.3-5.33V9.5H12.42v4.3H20s.19,2.46-1.33,2.46h-10A2.57,2.57,0,0,1,6.3,13.42V8.82C6.3,6,8.74,5.63,9.8,5.63H17c3.47,0,3.58,2.54,3.58,2.54ZM79.88,8H86s.87-7.8-5.44-7.8H68.13c-5.84,0-7.6,3.2-7.71,6.28s0,4.63,0,8.66,3.84,6.31,7,6.31H80.91c6,0,5.25-8.55,5.25-8.55H79.77s.11,2.89-2,2.89H69.25c-2,0-2.44-1.68-2.44-3.19V8.25c0-1.87,1.22-2.71,2.92-2.71h7.33C80.15,5.54,79.88,8,79.88,8ZM27.73.37V21.31H50V16.52H34.12V13.14H49.06V8.62H34.12V5.16H49.9V.37ZM16.48,28.44,16,29.5H14.39L17,23.87h2.24l2.68,5.63H20.4l-.51-1.06Z" fill="#3b4095"/><path d="M18.18,24.67,16.8,27.59h2.76Z" fill="#fff"/><path d="M44.4,28.44l-.49,1.06H42.32L45,23.87h2.22l2.7,5.63H48.35l-.54-1.06Z" fill="#3b4095"/><path d="M47.49,27.59l-1.38-2.92-1.35,2.92Z" fill="#fff"/><path d="M76,28.44l-.49,1.06h-1.6l2.65-5.63h2.25l2.68,5.63H80l-.52-1.06Z" fill="#3b4095"/><path d="M77.75,24.67h0l-1.36,2.92h2.74Z" fill="#fff"/><path d="M28.44,23.87l.13,4.71-3.44-4.71H22.62V29.5h1.51l-.05-4.71,3.36,4.71H30V23.87Zm2.9,0H35.1c2.19,0,3.14.57,3.14,2.08v1.36c0,1.16-.46,2.19-2.87,2.19h-4Z" fill="#3b4095"/><path d="M35.37,28.57a1.2,1.2,0,0,0,1.35-1.27V25.94c0-.92-.46-1.16-1.62-1.16H32.85v3.79Z" fill="#fff"/><path d="M96.1,27.71H94.58V28c0,1.6,1.57,1.57,3.33,1.57,2,0,3.08-.14,3.08-1.73s-.67-1.52-3.11-1.63c-1.54-.08-1.73-.08-1.73-.78s.24-.71,1.76-.71c1.06,0,1.41,0,1.41.63v.19h1.52v-.19c0-1.47-1.33-1.52-2.93-1.52-1.92,0-3.3.05-3.3,1.6S96,27,97.7,27.09c1.16,0,1.78-.06,1.78.73s-.19.84-1.57.84S96.1,28.6,96.1,28v-.27ZM52.25.37h6.31V21.43H52.25ZM85.35,29.5V24.79h2.33v-.92h-6.2v.92h2.33V29.5Zm4.44-3.3V24.79h3.93v-.92H88.28V29.5h5.46v-.92H89.79V27.09H93.5V26.2ZM67.3,28.58V23.87H65.78V29.5H71v-.92Zm-9.14-2.3V24.79h3.7v-.92H56.64V29.5h1.52V27.17h3.51v-.89Zm-6.18,0V24.79h3.73v-.92H50.46V29.5H52V27.17h3.55v-.89Zm10.88-2.41h1.52V29.5H62.86Zm8.91,0h1.51V29.5H71.77Z" fill="#3b4095"/></g></g></svg>