<svg xmlns="http://www.w3.org/2000/svg" xmlns:xlink="http://www.w3.org/1999/xlink" viewBox="0 0 47.32 42.32"><defs><linearGradient id="bd5197bb-03ca-434b-97b6-11e13685a760" x1="4.1" y1="39.39" x2="14.59" y2="39.39" gradientUnits="userSpaceOnUse"><stop offset="0" stop-color="#d2c182"/><stop offset="1" stop-color="#d2c285"/></linearGradient><linearGradient id="a3928589-af5e-4ba2-b8af-ba1afa479593" x1="1.71" y1="11.52" x2="5.37" y2="11.52" xlink:href="#bd5197bb-03ca-434b-97b6-11e13685a760"/><linearGradient id="b1bfc7bf-a4f0-4fd3-b843-edbc6dd868d3" x1="0" y1="20.35" x2="42.69" y2="20.35" xlink:href="#bd5197bb-03ca-434b-97b6-11e13685a760"/><linearGradient id="f38bc2ab-f39a-4258-b739-8df20d869880" x1="28.54" y1="39.39" x2="39.03" y2="39.39" xlink:href="#bd5197bb-03ca-434b-97b6-11e13685a760"/><linearGradient id="b299e3f7-be61-40b2-97f4-e5f922e90583" x1="6.07" y1="24.66" x2="13.15" y2="24.66" xlink:href="#bd5197bb-03ca-434b-97b6-11e13685a760"/><linearGradient id="ba109d1d-3b76-4ab7-a3cd-0c97302797be" x1="20.29" y1="13.18" x2="47.32" y2="13.18" xlink:href="#bd5197bb-03ca-434b-97b6-11e13685a760"/><linearGradient id="bd2479c9-54f8-4ec4-b62b-0fed46de58e5" x1="25.11" y1="18.65" x2="30.89" y2="18.65" xlink:href="#bd5197bb-03ca-434b-97b6-11e13685a760"/></defs><title>icon-3</title><g id="b2288eb4-5a86-4327-a5f8-1876a1bd1320" data-name="Layer 2"><g id="eab65952-3201-4506-b053-8a4cbe3bd931" data-name="Layer 6"><path d="M12.15,39.15a.73.73,0,0,1-.73.73H7.27a.73.73,0,0,1-.73-.73V36.47H4.1v2.68a3.17,3.17,0,0,0,3.17,3.17h4.15a3.17,3.17,0,0,0,3.17-3.17V36.47H12.15Z" fill="url(#bd5197bb-03ca-434b-97b6-11e13685a760)"/><rect x="1.71" y="10.3" width="3.66" height="2.44" fill="url(#a3928589-af5e-4ba2-b8af-ba1afa479593)"/><path d="M40.25,30.23a2.43,2.43,0,0,1-2.44,2.43H4.88a2.43,2.43,0,0,1-2.44-2.43c0-8-.64-8.2,3.8-10.83,3.08-1.82,3.3-4.53,4-7.72A4.66,4.66,0,0,1,14.77,8h9l.85-2.44H14.77a7.13,7.13,0,0,0-6.92,5.56c-1.07,4.91-.74,4.9-4.38,7A7.13,7.13,0,0,0,0,24.3v5.93A4.88,4.88,0,0,0,4.88,35.1H37.81a4.88,4.88,0,0,0,4.88-4.87V22.69l-2.44.85Z" fill="url(#b1bfc7bf-a4f0-4fd3-b843-edbc6dd868d3)"/><path d="M36.59,39.15a.73.73,0,0,1-.73.73H31.71a.73.73,0,0,1-.73-.73V36.47H28.54v2.68a3.17,3.17,0,0,0,3.17,3.17h4.15A3.17,3.17,0,0,0,39,39.15V36.47H36.59Z" fill="url(#f38bc2ab-f39a-4258-b739-8df20d869880)"/><path d="M6.07,22.1v.73a4.39,4.39,0,0,0,4.39,4.39h2.69V24.79H10.46a2,2,0,0,1-2-2V22.1Z" fill="url(#b299e3f7-be61-40b2-97f4-e5f922e90583)"/><path d="M46.11,14.61,33.77,1.26l-.08-.08a3.75,3.75,0,0,0-6.22,1.2h0L23.77,13.51,23,13.35a1,1,0,0,0-1.05.43l-1,1.53a1,1,0,0,0,0,1.12l.76,1c0,.12-.05.24-.06.36l-1,.65a1,1,0,0,0-.43,1l.4,1.76a1,1,0,0,0,.84.76l1.21.15.21.3-.27,1.19a1,1,0,0,0,.43,1l1.53,1a1,1,0,0,0,1.13-.06l1-.75.36.06.25.4c.49.8.69,1.08,1.19,1.08a5.51,5.51,0,0,0,1.16-.21l.86-.2a1,1,0,0,0,.75-.84l.15-1.22a2.73,2.73,0,0,0,.3-.21l.46.11c.83.2,1.29.32,1.69-.15L45,20a3.07,3.07,0,0,0,1.16-5.43Zm-.74,2.44a1.07,1.07,0,0,1-1.13,1.09,1,1,0,0,1-1.11-1.09,1.12,1.12,0,1,1,2.24,0ZM31,5.56a1.79,1.79,0,0,1-1.44-.72,1.76,1.76,0,0,1-.29-1.57l0-.13a1.8,1.8,0,0,1,3.49.62A1.81,1.81,0,0,1,31,5.56ZM41.87,19l-6.79,2.21a2.47,2.47,0,0,0-.56-.83l-.36-.46.06-.37.37-.22c.76-.46,1.26-.76,1.1-1.47-.07-.28-.12-.53-.16-.75-.25-1.16-.36-1.68-1.08-1.77l-1.21-.15-.21-.3c0-.15.07-.29.1-.43.21-.85.35-1.41-.27-1.8l-.64-.42c-.95-.63-1.43-.94-2-.49l-1,.76-.36-.07-.21-.32c-.79-1.27-.84-1.3-2-1h0l1.58-4.75A3.76,3.76,0,0,0,34.52,5l8.55,9.25a3.07,3.07,0,0,0-1.8,2.09A3,3,0,0,0,41.87,19Zm-9.1-.85a1,1,0,0,0-.47.91,4.05,4.05,0,0,1-.15.81,1,1,0,0,0,.17.88l.63.79-.23.36-.36-.09c-.75-.18-1.1-.26-1.49.09a4.18,4.18,0,0,1-.76.55c-.46.25-.48.34-.65,1.75l-.41.09L28.86,24c-.39-.64-.59-1-1.12-1a3.7,3.7,0,0,1-.94-.16.9.9,0,0,0-.28,0c-.35,0-.49.11-1.08.58l-.32.25-.36-.22.23-1a1,1,0,0,0-.32-1,5.59,5.59,0,0,1-.46-.68c-.26-.46-.61-.5-1.38-.58l-.36,0-.1-.41.85-.54a1,1,0,0,0,.47-.91,6.31,6.31,0,0,1,.15-.81c.15-.51-.07-.78-.55-1.38l-.24-.29.23-.36,1,.22a1,1,0,0,0,1-.31,3.82,3.82,0,0,1,.67-.46c.47-.26.5-.61.59-1.38,0-.11,0-.23,0-.37L27,13c.74,1.18.82,1.27,1.35,1.31a3.58,3.58,0,0,1,.9.16c.51.15.79-.07,1.39-.56l.29-.23.35.22-.22,1a1,1,0,0,0,.32,1,4.69,4.69,0,0,1,.46.67c.25.46.6.5,1.37.58l.37,0,.09.41-.85.54Z" fill="url(#ba109d1d-3b76-4ab7-a3cd-0c97302797be)"/><path d="M29.54,16.2a2.87,2.87,0,0,0-2.18-.37h0A2.89,2.89,0,0,0,28,21.54a3.38,3.38,0,0,0,.63-.07,2.89,2.89,0,0,0,.91-5.27Zm-2.3,3a.93.93,0,0,1,0-1,.91.91,0,0,1,.79-.43h.16a.92.92,0,0,1,.75.71,1,1,0,0,1-.12.7.92.92,0,0,1-.59.41h0A.89.89,0,0,1,27.24,19.18Z" fill="url(#bd2479c9-54f8-4ec4-b62b-0fed46de58e5)"/></g></g></svg>