<svg xmlns="http://www.w3.org/2000/svg" xmlns:xlink="http://www.w3.org/1999/xlink" viewBox="0 0 44.72 40.63"><defs><linearGradient id="b4e4b38f-e37f-4c8e-b619-e362a9a491cb" y1="18.16" x2="30.31" y2="18.16" gradientUnits="userSpaceOnUse"><stop offset="0" stop-color="#d2c182"/><stop offset="1" stop-color="#d2c285"/></linearGradient><linearGradient id="af0b14b0-6857-4abc-b8de-cbeb71084676" x1="1.71" y1="9.34" x2="5.37" y2="9.34" xlink:href="#b4e4b38f-e37f-4c8e-b619-e362a9a491cb"/><linearGradient id="f702359b-0eac-4176-b3f8-12bc82258f96" x1="4.1" y1="37.7" x2="14.59" y2="37.7" xlink:href="#b4e4b38f-e37f-4c8e-b619-e362a9a491cb"/><linearGradient id="edef853c-fcb8-4e98-a99c-e8178116a8f7" x1="8.18" y1="19.75" x2="44.72" y2="19.75" xlink:href="#b4e4b38f-e37f-4c8e-b619-e362a9a491cb"/></defs><title>icon-4</title><g id="fa8d84f0-7310-4af0-8cb8-3eab130635b9" data-name="Layer 2"><g id="f75994f1-c59e-4d8d-b43a-233cd8bb1550" data-name="Layer 6"><path d="M28.2,3.4H14.77A7.14,7.14,0,0,0,7.85,9c-1.07,4.92-.75,4.9-4.38,7A7.11,7.11,0,0,0,0,22.11V28a4.89,4.89,0,0,0,4.88,4.88H20.62V30.48H4.88A2.44,2.44,0,0,1,2.44,28c0-7.94-.66-8.18,3.8-10.82,3.11-1.85,3.32-4.63,4-7.73a4.67,4.67,0,0,1,4.53-3.65H28.2a4.55,4.55,0,0,1,.53,0l1.58-2.14A6.8,6.8,0,0,0,28.2,3.4Z" fill="url(#b4e4b38f-e37f-4c8e-b619-e362a9a491cb)"/><rect x="1.71" y="8.12" width="3.66" height="2.44" fill="url(#af0b14b0-6857-4abc-b8de-cbeb71084676)"/><path d="M12.15,37.45a.74.74,0,0,1-.73.74H7.27a.74.74,0,0,1-.73-.74V34.77H4.1v2.68a3.18,3.18,0,0,0,3.17,3.18h4.15a3.18,3.18,0,0,0,3.17-3.18V34.77H12.15Z" fill="url(#f702359b-0eac-4176-b3f8-12bc82258f96)"/><path d="M42,18.93H28l1.48-1.8-1.57-1.29-2.55,3.09H22.85a1,1,0,0,0-1,1v.87H19.09a1,1,0,0,0-1,1c0,6.26-.72,5.51,3.77,5.51v.87a1,1,0,0,0,1,1h6.58L28,31.83l1.78,1,2-3.59H34l1.56,3.25c-1.74,1.74-1.94,1.82-1.94,2.36v3.64a1,1,0,0,0,1,1H42a1,1,0,0,0,1-1V19.94A1,1,0,0,0,42,18.93ZM20.1,25.31V22.84h1.74v2.47ZM41,37.46H35.69V35.25c1.79-1.79,2.44-2.17,2-3-2.24-4.67-2.21-5.05-3.06-5.05h-1.8l.48-.88-1.78-1-1,1.86H23.87V21H41ZM10.9,17.93l5,2.24L15.08,22l-5-2.24ZM8.18,24h2.43v2H8.18Zm4.87,0h2.44v2H13.05ZM44.37,6.27l-6.93-6A1,1,0,0,0,36.7,0a1,1,0,0,0-.7.36L29.39,8.12a1.07,1.07,0,0,0-.24.53c-.69,5.52-.86,5.6-.3,6.08,2.74,2.33,2.7,2.4,3.19,2.4.21,0,5.1-1.29,5.3-1.34.43-.12-.08.37,7.14-8.09A1,1,0,0,0,44.37,6.27ZM36.52,13.9,32.3,15l-1.71-1.46.38-3c2.93,1.31,7-2.28,8.21.28Zm4-4.74c-2.4-3.27-7.19.48-8.89-.58l5.21-6.12,5.4,4.69Z" fill="url(#edef853c-fcb8-4e98-a99c-e8178116a8f7)"/></g></g></svg>