<svg xmlns="http://www.w3.org/2000/svg" xmlns:xlink="http://www.w3.org/1999/xlink" viewBox="0 0 48.45 37.63"><defs><linearGradient id="e6d2a8b2-fb19-4a50-8f30-6f3afb784e21" y1="18.81" x2="48.45" y2="18.81" gradientUnits="userSpaceOnUse"><stop offset="0" stop-color="#d2c182"/><stop offset="1" stop-color="#d2c285"/></linearGradient></defs><title>icon-2</title><g id="a8d5e7d5-69f1-46d7-a19d-23e5a4df2de6" data-name="Layer 2"><g id="b8aef522-a0ff-49ba-bbe4-3b02eecc4e8e" data-name="Layer 6"><path d="M4.88,27.08H20.62v2.44H4.88A4.89,4.89,0,0,1,0,24.64V18.71a7.1,7.1,0,0,1,3.47-6.09c3.63-2.15,3.31-2.14,4.38-7A7.13,7.13,0,0,1,14.77,0H28.2a7.13,7.13,0,0,1,6.92,5.57l.7,3.21-2.38.52-.71-3.21A4.66,4.66,0,0,0,28.2,2.44H14.77a4.66,4.66,0,0,0-4.53,3.65c-.68,3.1-.89,5.88-4,7.72-4.46,2.64-3.8,2.89-3.8,10.83A2.44,2.44,0,0,0,4.88,27.08Zm7.27,7a.73.73,0,0,1-.73.73H7.27a.73.73,0,0,1-.73-.73V31.37H4.1v2.68a3.17,3.17,0,0,0,3.17,3.17h4.15a3.17,3.17,0,0,0,3.17-3.17V31.37H12.15ZM41.47,4.72H37.81V7.16h3.66Zm-36.1,0H1.71V7.16H5.37Zm40.46,21c0,.36-.11.72-.19,1.08,2.34,3,2.39,2-.15,6-.59.93-1.48.49-3.66,0a9.1,9.1,0,0,1-.9.63l-.29,2.41c-.13,1.07-1,1-4.07,1.74a1.21,1.21,0,0,1-1.3-.53L34,35a8.15,8.15,0,0,1-1.08-.19c-1.85,1.45-2.39,2.15-3.31,1.57-2.63-1.67-3.49-1.93-3.25-3L26.87,31q-.33-.43-.63-.9c-2.33-.28-3.2-.17-3.44-1.23-.69-3.05-1.11-3.84-.17-4.43l2.05-1.29a9.36,9.36,0,0,1,.18-1.08c-1.45-1.86-2.14-2.4-1.56-3.31,1.66-2.63,1.93-3.5,3-3.25l2.36.53a9.1,9.1,0,0,1,.9-.63c.28-2.33.17-3.21,1.23-3.45,4.61-1,3.69-1.34,5.72,1.88a9.75,9.75,0,0,1,1.08.19c1.85-1.45,2.4-2.15,3.31-1.57,4,2.53,3.56,1.66,2.72,5.38.22.28.43.58.63.89,3.87.47,3.13-.14,4.15,4.36C48.65,24.17,47.81,24.45,45.83,25.71Zm0-2.9-.33-1.45c-2.15-.26-2.68-.18-3.06-.88-.87-1.58-1.55-1.64-1.34-2.57l.48-2.11L40.34,15c-1.7,1.34-2,1.77-2.8,1.55-1.73-.5-2.25-.07-2.76-.88l-1.15-1.82-1.45.32c-.26,2.14-.18,2.69-.89,3.07-1.54.85-1.63,1.54-2.57,1.33l-2.11-.47-.79,1.25c1.34,1.72,1.77,2,1.55,2.8-.5,1.71-.08,2.25-.88,2.76l-1.83,1.15L25,27.51c2.14.26,2.68.18,3.06.88C28.93,30,29.6,30,29.39,31l-.48,2.1,1.26.8c1.76-1.39,2-1.77,2.8-1.55,2.77.82,1.76-.69,3.91,2.71l1.44-.33.26-2.15c.12-.94.79-.78,2.12-2,.6-.54,1.1-.28,3.19.2l.79-1.26-1.33-1.7c-.6-.76,0-1.12.1-2.89C43.49,24.13,44,24,45.84,22.81Zm-9.57,6.13a4.62,4.62,0,1,1-2-9,4.62,4.62,0,0,1,2,9Zm-1.5-6.63a2.18,2.18,0,0,0-.68,4,2.18,2.18,0,0,0,3-.68A2.18,2.18,0,0,0,34.77,22.31ZM5.9,16.93v.73a4.4,4.4,0,0,0,4.39,4.39H13V19.61H10.29a2,2,0,0,1-1.95-1.95v-.73Zm9.82-3.87L22.06,7.6,20.47,5.75l-6.34,5.46Zm8.17-3.8L20,12.62l1.6,1.85,3.9-3.36Z" fill="url(#e6d2a8b2-fb19-4a50-8f30-6f3afb784e21)"/></g></g></svg>