<svg xmlns="http://www.w3.org/2000/svg" xmlns:xlink="http://www.w3.org/1999/xlink" viewBox="0 0 42.69 36.73"><defs><linearGradient id="a20b6b0a-cb78-4e6f-90a1-4994cec3f8c3" y1="18.37" x2="42.69" y2="18.37" gradientUnits="userSpaceOnUse"><stop offset="0" stop-color="#d2c182"/><stop offset="1" stop-color="#d2c285"/></linearGradient></defs><title>icon-1</title><g id="b1f5a940-2c45-483f-9df4-6fe7cea9d54e" data-name="Layer 2"><g id="eb55c4a1-313f-4da1-91ec-25dfcf250ae4" data-name="Layer 6"><path d="M37.91,11.73c-2-1.26-2.12-3.07-2.79-6.16A7.13,7.13,0,0,0,28.2,0H14.77A7.13,7.13,0,0,0,7.85,5.57c-1.07,4.9-.74,4.89-4.38,7A7.1,7.1,0,0,0,0,18.71v5.93a4.89,4.89,0,0,0,4.88,4.88H37.81a4.89,4.89,0,0,0,4.88-4.88v-6C42.69,14.28,39.35,12.62,37.91,11.73Zm2.34,12.91a2.44,2.44,0,0,1-2.44,2.44H4.88a2.44,2.44,0,0,1-2.44-2.44c0-8-.64-8.2,3.8-10.83,3.08-1.82,3.3-4.53,4-7.72a4.66,4.66,0,0,1,4.53-3.65H28.2a4.66,4.66,0,0,1,4.53,3.65c.7,3.18.9,5.86,3.9,7.72,1.4.87,3.62,1.9,3.62,4.83Zm-3.66,6.24H39v2.68a3.17,3.17,0,0,1-3.17,3.17H31.71a3.17,3.17,0,0,1-3.17-3.17V30.88H31v2.68a.73.73,0,0,0,.73.73h4.15a.73.73,0,0,0,.73-.73Zm-24.44,0h2.44v2.68a3.17,3.17,0,0,1-3.17,3.17H7.27A3.17,3.17,0,0,1,4.1,33.56V30.88H6.54v2.68a.73.73,0,0,0,.73.73h4.15a.73.73,0,0,0,.73-.73ZM32.06,15.4a1.22,1.22,0,0,0,.11-1.14,7.68,7.68,0,0,0-13.3-1.65H11.65a1.22,1.22,0,0,0-1.22,1.22v6.62a1.22,1.22,0,0,0,1.22,1.22h7.2A7.68,7.68,0,0,0,32.11,20.2,1.22,1.22,0,0,0,31,18.5H26.64l-1-1.32,1-1.24C31.34,15.94,31.58,16.1,32.06,15.4Zm-8.93,1a1.23,1.23,0,0,0,0,1.51c2.74,3.59,1.65,3,5.58,3a5.24,5.24,0,0,1-8.14-1.11c-.47-.8-.62-.6-7.68-.6V15.05c7.08,0,7.22.2,7.69-.58a5.24,5.24,0,0,1,8.26-1H26C25.28,13.5,25.18,13.83,23.13,16.39ZM41.47,7.16H37.81V4.72h3.66Zm-36.1,0H1.71V4.72H5.37Z" fill="url(#a20b6b0a-cb78-4e6f-90a1-4994cec3f8c3)"/></g></g></svg>