<svg xmlns="http://www.w3.org/2000/svg" xmlns:xlink="http://www.w3.org/1999/xlink" viewBox="0 0 45.72 40.12"><defs><linearGradient id="bab8f68f-2f75-4677-bc39-c340ef47640a" x1="4.1" y1="37.2" x2="14.59" y2="37.2" gradientUnits="userSpaceOnUse"><stop offset="0" stop-color="#d2c182"/><stop offset="1" stop-color="#d2c285"/></linearGradient><linearGradient id="e0a69a1d-866a-479e-939e-67657dfc0b54" x1="1.71" y1="9.33" x2="5.37" y2="9.33" xlink:href="#bab8f68f-2f75-4677-bc39-c340ef47640a"/><linearGradient id="fe20d9fc-802c-463d-aac8-46ce02b07ca1" x1="0" y1="18.15" x2="42.69" y2="18.15" xlink:href="#bab8f68f-2f75-4677-bc39-c340ef47640a"/><linearGradient id="e8b8ed6e-0776-46a5-85b2-5f692253738f" x1="28.54" y1="37.2" x2="39.03" y2="37.2" xlink:href="#bab8f68f-2f75-4677-bc39-c340ef47640a"/><linearGradient id="e8c32326-4492-4426-a6b8-f368950603b9" x1="6.07" y1="22.47" x2="13.15" y2="22.47" xlink:href="#bab8f68f-2f75-4677-bc39-c340ef47640a"/><linearGradient id="fc3df0c4-3688-4f5e-9dbc-412620de7c3a" x1="20.9" y1="8.79" x2="45.72" y2="8.79" xlink:href="#bab8f68f-2f75-4677-bc39-c340ef47640a"/><linearGradient id="af0d87b4-0f66-447f-9524-7f4656931d83" x1="22.2" y1="22.76" x2="28.05" y2="22.76" xlink:href="#bab8f68f-2f75-4677-bc39-c340ef47640a"/><linearGradient id="e7909fb8-07cb-4e78-8545-53c73305f9c4" x1="34.22" y1="22.76" x2="40.07" y2="22.76" xlink:href="#bab8f68f-2f75-4677-bc39-c340ef47640a"/><linearGradient id="bf11e860-37de-4c9c-bb52-d8f4ae49ebc5" x1="28.21" y1="22.76" x2="34.06" y2="22.76" xlink:href="#bab8f68f-2f75-4677-bc39-c340ef47640a"/></defs><title>icon-5</title><g id="e570f738-3a6b-4cd7-9da2-737d97ded31e" data-name="Layer 2"><g id="b39e639f-433b-4162-9708-5ea862078385" data-name="Layer 6"><path d="M12.15,37a.73.73,0,0,1-.73.73H7.27A.73.73,0,0,1,6.54,37V34.27H4.1V37a3.17,3.17,0,0,0,3.17,3.17h4.15A3.17,3.17,0,0,0,14.59,37V34.27H12.15Z" fill="url(#bab8f68f-2f75-4677-bc39-c340ef47640a)"/><rect x="1.71" y="8.11" width="3.66" height="2.44" fill="url(#e0a69a1d-866a-479e-939e-67657dfc0b54)"/><path d="M40.25,28a2.44,2.44,0,0,1-2.44,2.44H4.88A2.44,2.44,0,0,1,2.44,28c0-8-.64-8.2,3.8-10.83,3.08-1.82,3.3-4.53,4-7.72a4.66,4.66,0,0,1,4.53-3.65h8.38l1.46-2.44H14.77A7.13,7.13,0,0,0,7.85,9c-1.07,4.9-.74,4.89-4.38,7.05A7.11,7.11,0,0,0,0,22.1V28a4.89,4.89,0,0,0,4.88,4.88H37.81A4.89,4.89,0,0,0,42.69,28V19.27l-2.44,3.9Z" fill="url(#fe20d9fc-802c-463d-aac8-46ce02b07ca1)"/><path d="M36.59,37a.73.73,0,0,1-.73.73H31.71A.73.73,0,0,1,31,37V34.27H28.54V37a3.17,3.17,0,0,0,3.17,3.17h4.15A3.17,3.17,0,0,0,39,37V34.27H36.59Z" fill="url(#e8b8ed6e-0776-46a5-85b2-5f692253738f)"/><path d="M6.07,19.91v.73A4.4,4.4,0,0,0,10.46,25h2.69V22.59H10.46a2,2,0,0,1-2-1.95v-.73Z" fill="url(#e8c32326-4492-4426-a6b8-f368950603b9)"/><path d="M44.56,8.88a5,5,0,0,0-1-1,4.88,4.88,0,0,0-.95-.57,6.4,6.4,0,0,0,.11-1.15,6.12,6.12,0,0,0-.11-1.1,6.38,6.38,0,0,0-1-2.41A6.06,6.06,0,0,0,38.7.4,6,6,0,0,0,36.52,0a6.2,6.2,0,0,0-3.89,1.38,6.27,6.27,0,0,0-1.77,2.34,4.53,4.53,0,0,0-2.63,0,5,5,0,0,0-1.55.77,4.91,4.91,0,0,0-.56.49,4.8,4.8,0,0,0-.62.76,4.53,4.53,0,0,0-.73,2.56,4.71,4.71,0,0,0-2.33,1.15,4.65,4.65,0,0,0-1.51,3,3.77,3.77,0,0,0,0,.45,4.71,4.71,0,0,0,4.69,4.69H40.36a5.36,5.36,0,0,0,3.18-1,5.66,5.66,0,0,0,.61-.52,5.37,5.37,0,0,0,.41-7.13ZM26.93,9a2.59,2.59,0,0,1,.3-2.14,2.86,2.86,0,0,1,.67-.72,2.93,2.93,0,0,1,.89-.43A2.58,2.58,0,0,1,30.93,6a1,1,0,0,0,1.42-.31,1,1,0,0,0,.15-.38l0-.12A4.13,4.13,0,0,1,38,2.31a4.08,4.08,0,0,1,1.93,1.53,4.19,4.19,0,0,1,.6,1.34,4.1,4.1,0,0,1,.13,1,4.17,4.17,0,0,1-.26,1.44A1,1,0,0,0,41,8.94l.13,0A3.36,3.36,0,0,1,43,10.15c.09.11.16.23.24.35a3.3,3.3,0,0,1,0,3.43,3.83,3.83,0,0,1-.49.62,3.28,3.28,0,0,1-2.34,1H25.59A2.63,2.63,0,0,1,23,12.89a1.93,1.93,0,0,1,0-.26,2.58,2.58,0,0,1,.85-1.69,2.64,2.64,0,0,1,1.77-.69h.26A1,1,0,0,0,26.6,10,1,1,0,0,0,27,9.34V9.27H27Z" fill="url(#fc3df0c4-3688-4f5e-9dbc-412620de7c3a)"/><path d="M27.54,18.58h0a1,1,0,0,0-1.4.38l-3.8,6.58a1,1,0,0,0,.37,1.4,1.09,1.09,0,0,0,.51.14,1,1,0,0,0,.89-.52L27.91,20A1,1,0,0,0,27.54,18.58Z" fill="url(#af0d87b4-0f66-447f-9524-7f4656931d83)"/><path d="M39.56,18.58h0a1,1,0,0,0-1.4.38l-3.8,6.58a1,1,0,0,0,.37,1.4,1.06,1.06,0,0,0,.51.14.84.84,0,0,0,.27,0,1,1,0,0,0,.62-.48L39.93,20A1,1,0,0,0,39.56,18.58Z" fill="url(#e7909fb8-07cb-4e78-8545-53c73305f9c4)"/><path d="M33.55,18.58h0a1,1,0,0,0-1.4.38l-3.8,6.58a1,1,0,0,0-.1.78,1,1,0,0,0,.47.62,1.09,1.09,0,0,0,.51.14,1,1,0,0,0,.89-.52L33.92,20A1,1,0,0,0,33.55,18.58Z" fill="url(#bf11e860-37de-4c9c-bb52-d8f4ae49ebc5)"/></g></g></svg>