<svg xmlns="http://www.w3.org/2000/svg" viewBox="0 0 131.73 27.81"><title>allstate</title><g id="e01c0078-bbeb-4d34-865c-f2a37d8fe271" data-name="Layer 2"><g id="a5c72ac6-31a0-4fed-a47c-25b97a5f6d4c" data-name="Layer 6"><path d="M29.25,27.17h5.51V0H29.25V27.17Zm9.33,0H44.1V0H38.58V27.17ZM21.43,0H15.48L0,27.17H6l5.42-9.52h6.26L20,13.55V27.17h5.69V0ZM13.76,13.47,20,2.55V13.47Zm50,10c0,.06.51,4.39-8.22,4.39s-8.11-4.39-8.11-4.39V19.57H53v2c0,.76-.09,1.38.45,1.77.71.51,3.61.6,4.33,0,.46-.38.46-1.66.46-1.66V20.27a1.68,1.68,0,0,0-1.13-1.53S50,17.22,48.65,16a3.36,3.36,0,0,1-1.18-2.72V8.45c.56-4.65,8.39-4.2,8.39-4.2s7.66-.45,7.94,4.2v3.48H58.28V10.32c0-1.82-.93-2.19-2.45-2.16-1.69,0-2.71.31-2.71,2.24,0,0-.3,2.17,1.11,2.59s6.19,1.42,6.64,1.61a3.89,3.89,0,0,1,2.93,3.9v4.92Zm13.36-15V4.7H73.69V0H68.17V4.7H66.55L64.41,8.45h3.76V27.17h5.52V8.45Zm17.32.27c0-4.66-8-4.47-8-4.47s-7.82-.45-8.39,4.2v3.42h5.56V10.44c0-1.92.67-2.32,2.59-2.34,1.74,0,2.67.4,2.67,2.22v3H84s-6.11-.3-5.83,4.81v4.6s-.06,4.39,4.22,4.39h4.28l2.2-3.85H85.55s-1.69.43-1.69-2.89,1.06-3.16,1.52-3.16h3.43v9.9H94.5l0-18.45Zm13.68-.27V4.7h-3.53V0H99.11V4.7H97.46L95.32,8.45h3.79V27.17h5.52V8.45Zm6.39,4.92h5.2v-3c0-1.82-.93-2.24-2.67-2.22-1.92,0-2.53.2-2.53,2.13v3.14Zm0,3.87v4.58s-.17,1.76,2.7,1.76c2.7,0,2.5-1.76,2.5-1.76V19.68h5.57v3c0,5.66-8.22,5-8.22,5-8.84,0-8.16-4.92-8.16-4.92V8.45c.56-4.65,8.39-4.2,8.39-4.2s8-.19,8,4.47v8.51Zm12.73,7.54a2.23,2.23,0,1,1,2.23,2.2A2.2,2.2,0,0,1,127.28,24.78Zm2.23,1.84a1.83,1.83,0,1,0-1.79-1.84A1.78,1.78,0,0,0,129.51,26.62Zm-.46-.56h-.39V23.52h1c.6,0,.89.22.89.72a.66.66,0,0,1-.65.7l.72,1.12h-.43l-.67-1.1h-.44v1.1Zm.46-1.43c.32,0,.61,0,.61-.41s-.29-.37-.55-.37h-.52v.78Z" fill="#1c4882"/></g></g></svg>