<svg xmlns="http://www.w3.org/2000/svg" viewBox="0 0 45.23 42.71"><title>amex</title><g id="7aa39f70-3587-4451-b58b-e8187ff781a9" data-name="Layer 2"><g id="a8c05276-5e13-4175-97af-c28087791fc9" data-name="Layer 1"><path d="M1.14,42.28H1c0-.07,0-.18,0-.21S1,42,.85,42H.64v.32H.53v-.74H.85c.14,0,.25,0,.25.18a.21.21,0,0,1-.07.18A.18.18,0,0,1,1.1,42v.14s0,0,0,0ZM1,41.75c0-.11-.07-.11-.11-.11H.64v.21H.85c.07,0,.14,0,.14-.11m.6.14a.8.8,0,0,0-.82-.78.79.79,0,0,0-.78.78.8.8,0,1,0,1.6,0m-.11,0a.68.68,0,0,1-.71.67.65.65,0,0,1-.67-.67.67.67,0,0,1,.67-.67.7.7,0,0,1,.71.67M45.23,27.55c0,1.06-.68,1.56-1.88,1.56H41V28h2.31a.73.73,0,0,0,.46-.11.45.45,0,0,0,.14-.32.54.54,0,0,0-.14-.35.61.61,0,0,0-.43-.11c-1.1,0-2.49,0-2.49-1.53a1.5,1.5,0,0,1,1.7-1.49H45v1.06h-2.2a.85.85,0,0,0-.46.07.51.51,0,0,0-.18.39.39.39,0,0,0,.25.36,1.77,1.77,0,0,0,.46.07h.64a2,2,0,0,1,1.39.39,1.53,1.53,0,0,1,.35,1.07m-5-1.07a2,2,0,0,0-1.39-.39H38.2a1.77,1.77,0,0,1-.46-.07.38.38,0,0,1-.25-.36.42.42,0,0,1,.18-.39.85.85,0,0,1,.46-.07h2.2V24.14H38c-1.28,0-1.7.78-1.7,1.49,0,1.56,1.39,1.49,2.49,1.53a.61.61,0,0,1,.43.11.54.54,0,0,1,.14.35.45.45,0,0,1-.14.32.8.8,0,0,1-.46.11H36.39v1.06H38.7c1.21,0,1.88-.5,1.88-1.56A1.53,1.53,0,0,0,40.22,26.49Zm-4.54,1.6h-2.8v-1h2.73v-1H32.88v-.92h2.8v-1h-4v5h4Zm-5.26-3.69A3,3,0,0,0,29,24.14H26.24v5h1.21V27.3h1.28c.43,0,.68,0,.85.21a1.58,1.58,0,0,1,.21,1v.6H31v-1a1.63,1.63,0,0,0-.18-.92,1.37,1.37,0,0,0-.6-.42A1.37,1.37,0,0,0,31,25.49a1.11,1.11,0,0,0-.6-1.1m-6.74-.25h-3.8l-1.53,1.63L16.9,24.14H12.11v5h4.72l1.53-1.63,1.46,1.63h2.31V27.44h1.49c1,0,2.06-.28,2.06-1.67s-1.07-1.63-2-1.63m5.79,2.06a1.47,1.47,0,0,1-.57.07l-1.46,0V25.17H28.9a1,1,0,0,1,.57.11.45.45,0,0,1,.25.43.62.62,0,0,1-.25.5m-5.79.25H22.12V25.17h1.56c.43,0,.71.18.71.6a.64.64,0,0,1-.71.67m-4.58.18,1.85-2v4Zm-2.87,1.46H13.28v-1h2.63v-1H13.28v-.92h3l1.31,1.45Zm25.7-7.53h-1.7L38,16.83v3.73H35.57l-.46-1.1H32.63l-.46,1.1H30.78A2.57,2.57,0,0,1,29,20a2.6,2.6,0,0,1-.6-1.88,2.57,2.57,0,0,1,.64-2,2.41,2.41,0,0,1,1.81-.57H32v1.06H30.89a1.25,1.25,0,0,0-.92.29,1.61,1.61,0,0,0-.32,1.14A1.78,1.78,0,0,0,30,19.24a1.18,1.18,0,0,0,.82.25h.53l1.7-3.9h1.78l2,4.69V15.59h1.85L40.72,19V15.59h1.21Zm-14.09-5H26.63v5h1.21Zm-2.52.21a2.86,2.86,0,0,0-1.42-.21H21.16v5h1.17V18.75h1.28a1.22,1.22,0,0,1,.89.21,1.51,1.51,0,0,1,.18,1v.64h1.21v-1a1.32,1.32,0,0,0-.21-.89,1.47,1.47,0,0,0-.57-.43A1.41,1.41,0,0,0,26,16.94a1.23,1.23,0,0,0-.64-1.14m-5,3.73H17.54v-1h2.73v-1H17.54v-.89h2.77v-1h-4v5h4Zm-4.86-3.94h-2L12,19l-1.56-3.37H8.56v4.69l-2-4.69H4.76l-2.13,5H3.91l.46-1.1H6.85l.46,1.1H9.73V16.65l1.74,3.91h1l1.74-3.91v3.91h1.21Zm19.24,2.8-.82-2-.82,2Zm-10.3-.78a1.08,1.08,0,0,1-.6.11H22.33v-1.1h1.46a1.57,1.57,0,0,1,.6.07.53.53,0,0,1,.21.46.49.49,0,0,1-.21.46m-19.6.78.82-2,.82,2ZM44.95,0H2.59V17.89L4,14.59H7.14l.43.82v-.82h3.62L12,16.37l.78-1.77H24.32a2.1,2.1,0,0,1,1.35.39v-.39h3.16V15a4.23,4.23,0,0,1,2-.39H35.4l.43.82v-.82h3.37l.5.82v-.82H43v7H39.66L39,20.49v1.07H34.86l-.46-1.14h-1l-.46,1.14H30.74a4.25,4.25,0,0,1-1.92-.43v.43H23.68V20c0-.21,0-.25-.18-.25h-.18v1.85H13.38v-.89l-.36.89H10.93l-.35-.85v.85h-4l-.43-1.14h-1l-.46,1.14H2.59v21H44.95V29.79a4.33,4.33,0,0,1-1.74.32H40.12v-.43a2.74,2.74,0,0,1-1.6.43H28.79v-1.6c0-.21,0-.21-.21-.21H28.4v1.81H25.21V28.23a3.91,3.91,0,0,1-1.67.25h-.35v1.63H19.28L18.35,29l-1,1.07H11v-7h6.39l.92,1.07,1-1.07h4.3a2.68,2.68,0,0,1,1.67.43v-.43h3.83a3,3,0,0,1,1.63.43v-.43h5.79v.43A2.36,2.36,0,0,1,38,23.15h3.23v.43a2.56,2.56,0,0,1,1.49-.43h2.2Z" fill="#0077a6"/></g></g></svg>