<svg xmlns="http://www.w3.org/2000/svg" viewBox="0 0 116.46 53.3"><title>cash_1</title><g id="094316ca-9281-4ae9-83bf-3bad6c8d48fa" data-name="Layer 2"><g id="5b2a90ae-523f-4a1c-93c3-6694ec33d412" data-name="Layer 1"><rect width="116.46" height="53.3" fill="#39b54a"/><path d="M43.74,23.36a3.65,3.65,0,0,0-3.4.11A3.45,3.45,0,0,0,39,24.78a3.77,3.77,0,0,0,0,3.67,3.5,3.5,0,0,0,1.3,1.32,3.55,3.55,0,0,0,1.83.48,3.83,3.83,0,0,0,1.54-.34A4.41,4.41,0,0,0,45.08,29l1.21,1.35a6.31,6.31,0,0,1-2,1.36,5.53,5.53,0,0,1-2.27.5,5.62,5.62,0,0,1-2.84-.74,5.4,5.4,0,0,1-2-2,5.48,5.48,0,0,1-.74-2.8,5.38,5.38,0,0,1,2.8-4.77,5.94,5.94,0,0,1,5.13-.26,5.54,5.54,0,0,1,1.89,1.27l-1.2,1.5a4,4,0,0,0-1.34-1" fill="#fff"/><path d="M56.22,32l-1-2.27H50l-1,2.27H46.94l4.71-10.74h2.13L58.42,32Zm-5.46-4h3.77l-1.87-4.51Z" fill="#fff"/><path d="M65.09,23.27A5.09,5.09,0,0,0,63.56,23a2.13,2.13,0,0,0-1.17.28A.86.86,0,0,0,62,24a1,1,0,0,0,.3.74,2.34,2.34,0,0,0,.75.49,11.75,11.75,0,0,0,1.23.42,13.63,13.63,0,0,1,1.79.64,3.19,3.19,0,0,1,1.19,1,2.61,2.61,0,0,1,.49,1.66,2.83,2.83,0,0,1-.53,1.71,3.32,3.32,0,0,1-1.46,1.11,5.52,5.52,0,0,1-2.13.38,6.66,6.66,0,0,1-2.45-.47,6.91,6.91,0,0,1-2.09-1.25l.86-1.75a6.26,6.26,0,0,0,1.82,1.18,4.86,4.86,0,0,0,1.89.43A2.38,2.38,0,0,0,65,30a1.08,1.08,0,0,0,.19-1.66,2.23,2.23,0,0,0-.76-.48c-.31-.12-.73-.26-1.26-.41a14.85,14.85,0,0,1-1.78-.63,3.08,3.08,0,0,1-1.18-.93,2.55,2.55,0,0,1-.49-1.63,2.74,2.74,0,0,1,.5-1.63,3.22,3.22,0,0,1,1.41-1.08,5.42,5.42,0,0,1,2.11-.38,7.19,7.19,0,0,1,2.06.31,7,7,0,0,1,1.82.83L66.78,24a7.78,7.78,0,0,0-1.69-.78" fill="#fff"/><polygon points="70.05 21.29 72.11 21.29 72.11 25.87 77.46 25.87 77.46 21.29 79.52 21.29 79.52 32.02 77.46 32.02 77.46 27.67 72.11 27.67 72.11 32.02 70.05 32.02 70.05 21.29" fill="#fff"/></g></g></svg>