<svg xmlns="http://www.w3.org/2000/svg" viewBox="0 0 60.13 15.26"><title>Asset 7</title><g id="a93a220f-3b27-4e52-9e56-004da1d7bd7c" data-name="Layer 2"><g id="d20b6977-ff4a-4e67-96a5-06d86b7f889c" data-name="Layer 1"><path d="M2.71.21H0V9.66H2.68A4.84,4.84,0,0,0,6.06,8.57,4.78,4.78,0,0,0,7.79,4.94C7.79,2.15,5.71.21,2.71.21M4.86,7.33a3.69,3.69,0,0,1-2.54.74H1.83V1.83h.49a3.59,3.59,0,0,1,2.54.74,3.19,3.19,0,0,1,1,2.36,3.27,3.27,0,0,1-1,2.4M8.64,9.66h1.83V.21H8.64ZM15,3.84c-1.13-.42-1.45-.67-1.45-1.2s.6-1,1.38-1a1.84,1.84,0,0,1,1.48.74l1-1.23A4.17,4.17,0,0,0,14.59.07a2.78,2.78,0,0,0-3,2.71c0,1.3.6,1.94,2.33,2.57a6.59,6.59,0,0,1,1.27.53,1.13,1.13,0,0,1,.56,1,1.34,1.34,0,0,1-1.45,1.34,2.23,2.23,0,0,1-2-1.27L11.17,8.11a3.7,3.7,0,0,0,3.28,1.8,3,3,0,0,0,3.24-3.1c0-1.51-.64-2.18-2.71-3m3.28,1.09a4.9,4.9,0,0,0,5,4.94,5,5,0,0,0,2.29-.53V7.16a3,3,0,0,1-2.22,1.06,3.12,3.12,0,0,1-3.17-3.28,3.16,3.16,0,0,1,3.1-3.24,3,3,0,0,1,2.29,1.06V.6A4.42,4.42,0,0,0,23.3,0a5,5,0,0,0-5,4.94"/><path d="M31.3,0a5,5,0,0,0-5,4.86,5,5,0,0,0,10.08.07A4.93,4.93,0,0,0,31.3,0" fill="#db8135"/><path d="M31.3,0a5,5,0,0,0-5,4.86,5,5,0,0,0,10.08.07A4.93,4.93,0,0,0,31.3,0m0,4.93h0Z" fill="#db8135"/><path d="M31.3,4.94h5a5,5,0,0,0-10.08-.07,5,5,0,0,0,10.08.07Z" fill="#db8135"/><path d="M31.3,4.94h5a5,5,0,0,0-10.08-.07,5,5,0,0,0,10.08.07Z" fill="#db8137"/><path d="M31.3,4.94h5a5,5,0,0,0-10.08-.07,5,5,0,0,0,10.08.07Z" fill="#dc8337"/><path d="M31.3,4.94h5a5,5,0,0,0-10.08-.07,5,5,0,0,0,10.08.07Z" fill="#dc8539"/><path d="M31.3,4.94h5a5,5,0,0,0-10.08-.07,5,5,0,0,0,10.08.07Z" fill="#dc853a"/><path d="M31.3,4.94h5a5,5,0,0,0-10.08-.07,5,5,0,0,0,10.08.07Z" fill="#dc853c"/><path d="M31.3,4.94h5a5,5,0,0,0-10.08-.07,5,5,0,0,0,10.08.07Z" fill="#dd873e"/><path d="M31.3,4.94h5a5,5,0,0,0-10.08-.07,5,5,0,0,0,10.08.07Z" fill="#dd873e"/><path d="M31.3,4.94h5a5,5,0,0,0-10.08-.07,5,5,0,0,0,10.08.07Z" fill="#dd883f"/><path d="M31.3,4.94h5a5,5,0,0,0-10.08-.07,5,5,0,0,0,10.08.07Z" fill="#dd8841"/><path d="M31.3,4.94h5a5,5,0,0,0-10.08-.07,5,5,0,0,0,10.08.07Z" fill="#de8a41"/><path d="M31.3,4.94h5a5,5,0,0,0-10.08-.07,5,5,0,0,0,10.08.07Z" fill="#de8a43"/><path d="M31.3,4.94h5a5,5,0,0,0-10.08-.07,5,5,0,0,0,10.08.07Z" fill="#de8a44"/><path d="M31.3,4.94h5a5,5,0,0,0-10.08-.07,5,5,0,0,0,10.08.07Z" fill="#de8c46"/><path d="M31.3,4.94h0Zm5,0s0-.09,0-.13h0s0-.08,0-.12h0s0-.08,0-.12h0V4.43h0V4.3h0l0-.11h0l0-.11h0V3.89l0-.09v0l0-.08,0-.08v0l0-.08v0A5,5,0,0,0,31.3,0a5.06,5.06,0,0,0-4.59,2.85,5,5,0,0,0-.45,2,5.33,5.33,0,0,0,.29,1.71l0,0v0a5,5,0,0,0,.83,1.45,5.15,5.15,0,0,0,8.71-1.71l0-.11a5.14,5.14,0,0,0,.18-1h0s0-.09,0-.13h0c0-.09,0-.17,0-.26" fill="#df8e47"/><path d="M31.3,4.94h5A5,5,0,0,0,33.61.53,5.21,5.21,0,0,0,31.3,0a5.15,5.15,0,0,0-2.91.89,5,5,0,0,0-2.1,4,5,5,0,0,0,2.49,4.32,5.25,5.25,0,0,0,2.51.61,5.13,5.13,0,0,0,3.09-1A5,5,0,0,0,36.3,4.94Z" fill="#df8e48"/><path d="M31.3,4.94h4.93A5,5,0,0,0,31.3,0h-.13A5,5,0,0,0,29.7,9.64a5.47,5.47,0,0,0,1.6.23,5.25,5.25,0,0,0,1.93-.36,5,5,0,0,0,3-4.57Z" fill="#df8e4a"/><path d="M31.3,4.94h4.9a4.9,4.9,0,1,0-4.92,4.9h0A4.89,4.89,0,0,0,36.2,5v0Z" fill="#df904a"/><path d="M31.3,4.94h4.86A4.86,4.86,0,1,0,31.3,9.8a4.84,4.84,0,0,0,4.86-4.86Z" fill="#e0914c"/><path d="M31.3,4.94h4.83A4.83,4.83,0,1,0,31.3,9.76a4.83,4.83,0,0,0,4.83-4.83Z" fill="#e0914e"/><path d="M31.3,4.94h4.76A4.76,4.76,0,1,0,31.3,9.73a4.76,4.76,0,0,0,4.76-4.79Z" fill="#df924f"/><path d="M31.3,4.94H36A4.72,4.72,0,1,0,31.3,9.66,4.72,4.72,0,0,0,36,4.94Z" fill="#e09351"/><path d="M31.3,4.94H36A4.69,4.69,0,1,0,31.3,9.62,4.68,4.68,0,0,0,36,4.94Z" fill="#e09552"/><path d="M31.3,4.94h4.62A4.64,4.64,0,1,0,31.3,9.59a4.61,4.61,0,0,0,4.62-4.65Z" fill="#e09554"/><path d="M31.3,4.94h4.58A4.57,4.57,0,0,0,31.32.35h0a4.57,4.57,0,0,0-4.58,4.56v0a4.58,4.58,0,1,0,9.16,0Z" fill="#e09555"/><path d="M31.3,4.94h4.55A4.55,4.55,0,1,0,31.3,9.48a4.56,4.56,0,0,0,4.55-4.55v0Z" fill="#e19756"/><path d="M31.3,4.94h4.51a4.51,4.51,0,1,0-4.54,4.51h0A4.5,4.5,0,0,0,35.81,5v0Z" fill="#e19757"/><path d="M31.3,4.94h4.44a4.46,4.46,0,0,0-8.92,0,4.46,4.46,0,1,0,8.92,0Z" fill="#e29959"/><path d="M31.3,4.94h4.4a4.41,4.41,0,1,0-4.4,4.44,4.41,4.41,0,0,0,4.4-4.44Z" fill="#e2995b"/><path d="M31.3,4.94h4.37A4.37,4.37,0,1,0,31.3,9.31a4.39,4.39,0,0,0,4.37-4.37Z" fill="#e29b5b"/><path d="M31.3,4.94h4.33A4.34,4.34,0,1,0,31.3,9.27a4.33,4.33,0,0,0,4.33-4.34Z" fill="#e29b5d"/><path d="M31.3,4.94h4.26A4.26,4.26,0,0,0,31.32.67h0a4.28,4.28,0,1,0,4.26,4.27Z" fill="#e39d5f"/><path d="M31.3,4.94h4.23A4.23,4.23,0,1,0,31.3,9.2a4.24,4.24,0,0,0,4.23-4.27Z" fill="#e39d61"/><path d="M31.3,4.94h4.19A4.19,4.19,0,1,0,31.3,9.13a4.2,4.2,0,0,0,4.19-4.19Z" fill="#e39f63"/><path d="M31.3,4.94h4.16A4.16,4.16,0,1,0,31.3,9.09a4.14,4.14,0,0,0,4.16-4.16Z" fill="#e39f63"/><path d="M31.3,4.94h4.09A4.09,4.09,0,1,0,31.3,9.06a4.09,4.09,0,0,0,4.09-4.12Z" fill="#e39f64"/><path d="M31.3,4.94h4.05A4.05,4.05,0,1,0,31.3,9a4.05,4.05,0,0,0,4.05-4.09Z" fill="#e4a166"/><path d="M31.3,4.94h4a4,4,0,1,0-4,4,4,4,0,0,0,4-4Z" fill="#e4a367"/><path d="M31.3,4.94h4a4,4,0,1,0-4,4,4,4,0,0,0,4-4Z" fill="#e4a369"/><path d="M31.3,4.94h3.91A3.91,3.91,0,1,0,31.3,8.88a3.9,3.9,0,0,0,3.91-3.95Z" fill="#e4a36a"/><path d="M31.3,4.94h3.88a3.87,3.87,0,0,0-3.85-3.88h0a3.87,3.87,0,0,0-3.88,3.86v0a3.88,3.88,0,1,0,7.75,0Z" fill="#e5a56c"/><path d="M31.3,4.94h3.84A3.84,3.84,0,1,0,31.3,8.78a3.85,3.85,0,0,0,3.84-3.84Z" fill="#e5a56c"/><path d="M31.3,4.94h3.81A3.81,3.81,0,1,0,31.3,8.74a3.81,3.81,0,0,0,3.81-3.81Z" fill="#e5a76e"/><path d="M31.3,4.94H35A3.74,3.74,0,1,0,31.3,8.71,3.74,3.74,0,0,0,35,4.94Z" fill="#e5a770"/><path d="M31.3,4.94H35a3.7,3.7,0,1,0-3.7,3.7A3.7,3.7,0,0,0,35,4.94Z" fill="#e6a970"/><path d="M31.3,4.94H35A3.67,3.67,0,1,0,31.3,8.6,3.69,3.69,0,0,0,35,4.94Z" fill="#e6a972"/><path d="M31.3,4.94h3.63a3.63,3.63,0,1,0-3.64,3.63h0a3.62,3.62,0,0,0,3.63-3.62H31.3Z" fill="#e6ab74"/><path d="M31.3,4.94h3.56a3.55,3.55,0,0,0-3.54-3.56h0a3.55,3.55,0,0,0-3.56,3.54v0a3.56,3.56,0,1,0,7.12,0Z" fill="#e6ab75"/><path d="M31.3,4.94h3.52A3.52,3.52,0,1,0,31.3,8.46a3.53,3.53,0,0,0,3.52-3.52v0Z" fill="#e7ad77"/><path d="M31.3,4.94h3.49A3.49,3.49,0,1,0,31.3,8.42a3.5,3.5,0,0,0,3.49-3.49v0Z" fill="#e7ad77"/><path d="M31.3,4.94h3.45A3.45,3.45,0,1,0,31.3,8.39a3.43,3.43,0,0,0,3.45-3.45Z" fill="#e8af79"/><path d="M31.3,4.94h3.38A3.38,3.38,0,1,0,31.3,8.35a3.38,3.38,0,0,0,3.38-3.42Z" fill="#e8af7b"/><path d="M31.3,4.94h3.35A3.35,3.35,0,1,0,31.3,8.28a3.35,3.35,0,0,0,3.35-3.35Z" fill="#e8b17b"/><path d="M31.3,4.94h3.31a3.31,3.31,0,0,0-3.31-3.31h0A3.31,3.31,0,0,0,28,4.93h0a3.31,3.31,0,0,0,3.31,3.31h0a3.31,3.31,0,0,0,3.31-3.31H31.3Z" fill="#e8b17d"/><path d="M31.3,4.94h3.28A3.28,3.28,0,1,0,31.3,8.21a3.26,3.26,0,0,0,3.28-3.28Z" fill="#e8b17e"/><path d="M31.3,4.94h3.21a3.21,3.21,0,0,0-6.41,0v0a3.21,3.21,0,1,0,6.41,0Z" fill="#e9b381"/><path d="M31.3,4.94h3.17a3.16,3.16,0,0,0-3.15-3.17h0a3.16,3.16,0,0,0-3.17,3.15v0a3.16,3.16,0,0,0,3.15,3.17h0A3.16,3.16,0,0,0,34.47,5v0Z" fill="#e9b381"/><path d="M31.3,4.94h3.14A3.14,3.14,0,1,0,31.3,8.07a3.14,3.14,0,0,0,3.14-3.14Z" fill="#e9b583"/><path d="M31.3,4.94h3.1A3.1,3.1,0,1,0,31.3,8a3.1,3.1,0,0,0,3.1-3.1Z" fill="#e9b584"/><path d="M31.3,4.94h3A3,3,0,1,0,31.3,8a3,3,0,0,0,3-3.07Z" fill="#eab786"/><path d="M31.3,4.94h3a3,3,0,0,0-3-3h0a3,3,0,1,0,3,3h-3Z" fill="#eab788"/><path d="M31.3,4.94h3a3,3,0,1,0-3,3,3,3,0,0,0,3-3Z" fill="#ebb989"/><path d="M31.3,4.94h2.92a2.93,2.93,0,1,0-2.94,2.93h0a2.92,2.92,0,0,0,2.92-2.91H31.3Z" fill="#ebb98a"/><path d="M31.3,4.94h2.85a2.84,2.84,0,0,0-2.83-2.85h0a2.84,2.84,0,0,0-2.86,2.85,2.85,2.85,0,1,0,5.71,0Z" fill="#ebbb8c"/><path d="M31.3,4.94h2.82A2.82,2.82,0,1,0,31.3,7.75a2.83,2.83,0,0,0,2.82-2.82Z" fill="#ebbb8c"/><path d="M31.3,4.94h2.78a2.78,2.78,0,1,0-2.82,2.78h0A2.77,2.77,0,0,0,34.08,5v0Z" fill="#ecbd8f"/><path d="M31.3,4.94H34a2.75,2.75,0,0,0-5.5,0,2.75,2.75,0,0,0,5.5,0Z" fill="#ecbd90"/><path d="M31.3,4.94H34A2.68,2.68,0,0,0,31.3,2.26h0a2.68,2.68,0,0,0-2.68,2.68h0a2.68,2.68,0,1,0,5.36,0Z" fill="#ecbf93"/><path d="M31.3,4.94h2.64a2.64,2.64,0,1,0-5.29,0,2.64,2.64,0,1,0,5.29,0Z" fill="#ecbf93"/><path d="M31.3,4.94h2.61A2.61,2.61,0,1,0,31.3,7.54a2.6,2.6,0,0,0,2.61-2.61H31.3Z" fill="#edc195"/><path d="M31.3,4.94h2.57a2.57,2.57,0,0,0-5.15,0,2.57,2.57,0,0,0,5.15,0Z" fill="#edc196"/><path d="M31.3,4.94h2.5a2.5,2.5,0,1,0-2.5,2.54,2.51,2.51,0,0,0,2.5-2.54Z" fill="#eec397"/><path d="M31.3,4.94h2.47a2.47,2.47,0,1,0-2.5,2.47h0A2.45,2.45,0,0,0,33.77,5v0Z" fill="#eec399"/><path d="M31.3,4.94h2.43A2.43,2.43,0,1,0,31.3,7.37a2.44,2.44,0,0,0,2.43-2.43Z" fill="#eec59b"/><path d="M31.3,4.94h2.4a2.4,2.4,0,1,0-2.4,2.4,2.39,2.39,0,0,0,2.4-2.4Z" fill="#eec69d"/><path d="M31.3,4.94h2.33A2.33,2.33,0,1,0,31.3,7.3a2.32,2.32,0,0,0,2.33-2.36Z" fill="#eec69f"/><path d="M31.3,4.94h2.29a2.29,2.29,0,0,0-2.28-2.29h0A2.29,2.29,0,0,0,29,4.93h0a2.29,2.29,0,0,0,2.28,2.29h0a2.29,2.29,0,0,0,2.29-2.28H31.3Z" fill="#efc89f"/><path d="M31.3,4.94h2.26a2.26,2.26,0,0,0-4.51,0,2.25,2.25,0,0,0,2.24,2.26h0a2.25,2.25,0,0,0,2.26-2.24H31.3Z" fill="#efc8a1"/><path d="M31.3,4.94h2.22a2.22,2.22,0,1,0-2.24,2.22h0A2.21,2.21,0,0,0,33.52,5v0Z" fill="#efcaa3"/><path d="M31.3,4.94h2.15a2.13,2.13,0,0,0-2.12-2.15h0a2.14,2.14,0,0,0-2.15,2.12v0a2.15,2.15,0,1,0,4.3,0Z" fill="#efcaa3"/><path d="M31.3,4.94h2.11A2.11,2.11,0,1,0,31.3,7a2.12,2.12,0,0,0,2.11-2.11Z" fill="#f0cca6"/><path d="M31.3,4.94h2.08A2.11,2.11,0,0,0,31.3,2.86a2.08,2.08,0,0,0-2.08,2.08A2.06,2.06,0,0,0,31.3,7a2.08,2.08,0,0,0,2.08-2.08Z" fill="#f0cca8"/><path d="M31.3,4.94h2a2,2,0,0,0-4.09,0,2,2,0,0,0,4.09,0Z" fill="#f1ceaa"/><path d="M31.3,4.94h2a2,2,0,0,0-2-2h0a2,2,0,0,0-2,2,2,2,0,1,0,3.95,0Z" fill="#f1ceaa"/><path d="M31.3,4.94h1.94a1.94,1.94,0,1,0-3.88,0,1.93,1.93,0,0,0,1.93,1.94h0a1.93,1.93,0,0,0,1.94-1.93H31.3Z" fill="#f1d0ad"/><path d="M31.3,4.94h1.9a1.9,1.9,0,0,0-3.81,0,1.9,1.9,0,0,0,1.89,1.9h0A1.9,1.9,0,0,0,33.2,5v0Z" fill="#f1d0ae"/><path d="M31.3,4.94h1.87a1.87,1.87,0,0,0-3.74,0,1.87,1.87,0,0,0,3.74,0Z" fill="#f2d2b1"/><path d="M31.3,4.94h1.8a1.8,1.8,0,1,0-1.8,1.83,1.81,1.81,0,0,0,1.8-1.83Z" fill="#f2d2b3"/><path d="M31.3,4.94h1.76a1.76,1.76,0,1,0-3.53,0,1.76,1.76,0,0,0,3.53,0Z" fill="#f3d4b4"/><path d="M31.3,4.94H33A1.73,1.73,0,1,0,31.3,6.66,1.73,1.73,0,0,0,33,4.94Z" fill="#f3d4b5"/><path d="M31.3,4.94H33A1.69,1.69,0,1,0,31.3,6.63,1.68,1.68,0,0,0,33,4.94Z" fill="#f3d4b7"/><path d="M31.3,4.94h1.62a1.62,1.62,0,0,0-1.61-1.62h0a1.62,1.62,0,0,0-1.62,1.61h0a1.62,1.62,0,1,0,3.24,0Z" fill="#f3d6b8"/><path d="M31.3,4.94h1.58a1.58,1.58,0,0,0-1.57-1.59h0a1.59,1.59,0,1,0,1.58,1.6H31.3Z" fill="#f4d8ba"/><path d="M31.3,4.94h1.55a1.55,1.55,0,1,0-3.1,0,1.55,1.55,0,1,0,3.1,0Z" fill="#f4d9bc"/><path d="M31.3,4.94h1.51A1.52,1.52,0,1,0,31.3,6.45a1.5,1.5,0,0,0,1.51-1.52Z" fill="#f4d9be"/><path d="M31.3,4.94h1.44a1.45,1.45,0,0,0-2.89,0,1.45,1.45,0,1,0,2.89,0Z" fill="#f4dbbf"/><path d="M31.3,4.94h1.41A1.41,1.41,0,1,0,31.3,6.35a1.41,1.41,0,0,0,1.41-1.41Z" fill="#f4dbc0"/><path d="M31.3,4.94h1.38a1.37,1.37,0,0,0-2.75,0,1.38,1.38,0,0,0,2.75,0Z" fill="#f5ddc3"/><path d="M31.3,4.94h1.34A1.34,1.34,0,1,0,31.3,6.27a1.33,1.33,0,0,0,1.34-1.34Z" fill="#f5ddc3"/><path d="M31.3,4.94h1.27a1.27,1.27,0,1,0-2.54,0,1.27,1.27,0,1,0,2.54,0Z" fill="#f6dfc6"/><path d="M31.3,4.94h1.23a1.23,1.23,0,0,0-2.47,0,1.23,1.23,0,0,0,2.47,0Z" fill="#f6dfc7"/><path d="M31.3,4.94h1.2a1.2,1.2,0,0,0-2.4,0,1.19,1.19,0,0,0,1.18,1.2h0A1.19,1.19,0,0,0,32.5,5v0Z" fill="#f6e1ca"/><path d="M31.3,4.94h1.16a1.16,1.16,0,0,0-2.33,0,1.16,1.16,0,1,0,2.33,0Z" fill="#f6e1cc"/><path d="M31.3,4.94h1.09A1.09,1.09,0,1,0,31.3,6.06a1.1,1.1,0,0,0,1.09-1.13Z" fill="#f7e3cd"/><path d="M31.3,4.94h1.06a1.06,1.06,0,1,0-2.11,0,1.06,1.06,0,0,0,2.11,0Z" fill="#f7e3cf"/><path d="M31.3,4.94h1a1,1,0,1,0-1,1,1,1,0,0,0,1-1Z" fill="#f7e3d0"/><path d="M31.3,4.94h1a1,1,0,1,0-1,1h0a1,1,0,0,0,1-1h-1Z" fill="#f8e5d1"/><path d="M31.3,4.94h.92a.92.92,0,0,0-1.83,0h0a.92.92,0,1,0,1.83,0Z" fill="#f8e8d4"/><path d="M31.3,4.94h.88a.87.87,0,0,0-.86-.88h0a.87.87,0,0,0-.88.86v0a.87.87,0,0,0,.86.88h0A.87.87,0,0,0,32.18,5v0Z" fill="#f8e8d6"/><path d="M31.3,4.94h.85a.85.85,0,0,0-1.69,0,.85.85,0,1,0,1.69,0Z" fill="#f8e8d8"/><path d="M31.3,4.94h.81a.81.81,0,1,0-.81.81.81.81,0,0,0,.81-.81Z" fill="#f9ead9"/><path d="M31.3,4.94H32a.74.74,0,1,0-1.48,0,.74.74,0,1,0,1.48,0Z" fill="#faecdc"/><path d="M31.3,4.94H32a.71.71,0,1,0-.7.71.71.71,0,0,0,.7-.71Z" fill="#faecdd"/><path d="M31.3,4.94H32a.67.67,0,0,0-1.34,0,.67.67,0,1,0,1.34,0Z" fill="#faecdf"/><path d="M31.3,4.94h.63a.63.63,0,1,0-.63.63.63.63,0,0,0,.63-.63H31.3Z" fill="#faeee0"/><path d="M31.3,4.94h.56a.56.56,0,0,0-1.13,0,.57.57,0,1,0,1.13,0Z" fill="#fbf0e3"/><path d="M31.3,4.94h.53a.53.53,0,1,0-1.06,0,.53.53,0,0,0,1.06,0Z" fill="#fbf1e5"/><path d="M31.3,4.94h.49a.49.49,0,0,0-1,0,.49.49,0,0,0,1,0Z" fill="#fbf1e7"/><path d="M31.3,4.94h.46a.46.46,0,0,0-.92,0,.46.46,0,1,0,.92,0Z" fill="#fcf3e8"/><path d="M31.3,4.94h.39a.39.39,0,0,0-.78,0,.39.39,0,1,0,.78,0Z" fill="#fcf3ea"/><path d="M31.3,4.94h.35a.35.35,0,1,0-.7,0,.35.35,0,1,0,.7,0Z" fill="#fcf5ed"/><path d="M31.3,4.94h.32a.32.32,0,0,0-.63,0,.32.32,0,0,0,.63,0H31.3Z" fill="#fcf5ef"/><path d="M31.3,4.94h.28a.28.28,0,0,0-.56,0,.28.28,0,1,0,.56,0Z" fill="#fdf8f1"/><path d="M31.3,4.94h.21a.21.21,0,1,0-.42,0,.21.21,0,1,0,.42,0Z" fill="#fdf8f3"/><path d="M31.3,4.94h.18a.18.18,0,1,0-.35,0,.18.18,0,0,0,.35,0Z" fill="#fdf8f5"/><path d="M31.3,4.94h.14c0-.07-.07-.11-.14-.11s-.14,0-.14.11a.14.14,0,1,0,.28,0Z" fill="#fefbf6"/><path d="M31.3,4.94h.07a.08.08,0,0,0-.07-.07s-.11,0-.11.07A.11.11,0,0,0,31.3,5s.07,0,.07-.11Z" fill="#fffffb"/><path d="M31.3,4.94h0a0,0,0,0,0,0,0,0,0,0,0,0,0,0s0,.07,0,.07,0,0,0-.07Z" fill="#fff"/><path d="M40.5,6.56,38,.21H36l4,9.69h1L45,.21H43Zm5.39,3.1h5.22V8.07H47.72V5.53H51V3.91H47.72V1.83h3.38V.21H45.89ZM58.4,3c0-1.76-1.2-2.79-3.35-2.79H52.34V9.66h1.83V5.89h.25L57,9.66h2.26l-3-4A2.52,2.52,0,0,0,58.4,3M54.7,4.58h-.53V1.69h.56c1.16,0,1.76.49,1.76,1.41s-.6,1.48-1.8,1.48M.42,12.43v.85h1v.34h-1V15.1H0v-3H1.5v.34Zm2.8-.34h.38v3H3.21Zm2.19-.15,2.25,2.37V12.09H8v3.13L5.78,12.86V15.1H5.41ZM11.51,14H10.44L11,12.78Zm.15.34.34.75h.41L11,12,9.54,15.1h.4l.34-.75Zm2.25-2.4,2.26,2.37V12.09h.38v3.13l-2.26-2.36V15.1h-.37Zm6.64.72a1.21,1.21,0,1,0-.8,2.15,1.2,1.2,0,0,0,.8-.31v.44a1.62,1.62,0,0,1-.79.21,1.56,1.56,0,0,1-1.57-1.55A1.58,1.58,0,0,1,19.8,12a1.45,1.45,0,0,1,.76.2v.44Zm1.72-.57h.37v3h-.37ZM26.16,14H25.09l.54-1.22Zm.15.34.34.75h.4L25.63,12,24.19,15.1h.4l.34-.75Zm2.66.41h.91v.34H28.6v-3H29Zm6.23-2.1a.51.51,0,0,0-.48-.28.48.48,0,0,0-.5.43c0,.23.24.36.42.43l.21.08c.43.17.75.4.75.9a.95.95,0,0,1-1.89.1l.38-.08a.57.57,0,1,0,1.14,0c0-.32-.26-.46-.52-.57l-.21-.09c-.35-.15-.66-.34-.66-.76a.82.82,0,0,1,.89-.78.86.86,0,0,1,.77.46Zm2.09-.57h1.62v.34H37.67v.84h1.21v.34H37.67v1.14h1.24v.34H37.29Zm3.74.33h.1c.37,0,.82.07.82.54s-.42.55-.8.55H41Zm.55,1.36a.82.82,0,0,0,.72-.84.83.83,0,0,0-.4-.72,1.6,1.6,0,0,0-.79-.14h-.45v3H41V13.83h.15l.89,1.27h.45Zm3.52.53L46,12.09h.41l-1.3,3.17L43.8,12.09h.41Zm2.84-2.22h.38v3h-.37Zm4.42.57a1.22,1.22,0,0,0-.8-.29,1.22,1.22,0,1,0,.8,2.14v.44a1.63,1.63,0,0,1-.79.21A1.56,1.56,0,0,1,50,13.61,1.58,1.58,0,0,1,51.6,12a1.48,1.48,0,0,1,.76.2v.44Zm1.73-.57h1.62v.34H54.47v.84h1.2v.34h-1.2v1.14h1.24v.34H54.09Zm4.7.57a.51.51,0,0,0-.48-.28.47.47,0,0,0-.5.43c0,.23.23.36.42.43l.22.08c.43.17.74.4.74.9a.95.95,0,0,1-1.89.1l.38-.08a.57.57,0,1,0,1.14,0c0-.32-.26-.46-.52-.57l-.21-.09c-.34-.15-.65-.34-.65-.76a.82.82,0,0,1,.89-.78.87.87,0,0,1,.78.46Zm.69-11.61c0,.07,0,.11-.15.11h0V.94h0c.1,0,.15,0,.15.11m.29.57-.27-.34A.23.23,0,0,0,59.69,1c0-.16-.11-.26-.32-.26H59.1v.83h.2V1.3l.23.32Zm.35-.42a.72.72,0,1,0-1.44,0h0a.72.72,0,1,0,1.44,0m-.15,0a.58.58,0,1,1-1.15,0,.58.58,0,1,1,1.15,0"/></g></g></svg>