<svg xmlns="http://www.w3.org/2000/svg" viewBox="0 0 49.9 38.82"><title>mastercard</title><g id="ad5fa887-704b-46db-b85f-bd88da40dc0d" data-name="Layer 2"><g id="29946834-eec2-4043-84a3-0e90f18c8754" data-name="Layer 1"><path d="M48.91,38.29v.1H49a0,0,0,0,0,0,0,0,0,0,0,0,0,0h-.14Zm.09-.07a.17.17,0,0,1,.11,0,.11.11,0,0,1,0,.09.1.1,0,0,1,0,.08.16.16,0,0,1-.09,0l.12.14h-.1l-.11-.14h0v.14h-.08v-.38H49Zm0,.51.12,0,.1-.07a.31.31,0,0,0,.07-.1.31.31,0,0,0-.07-.35.31.31,0,0,0-.1-.07l-.12,0-.12,0-.1.07a.32.32,0,0,0-.07.35.31.31,0,0,0,.07.1l.1.07.13,0M49,38a.41.41,0,0,1,.29.12.4.4,0,0,1,.09.45.42.42,0,0,1-.22.22.41.41,0,0,1-.16,0,.43.43,0,0,1-.3-.12.43.43,0,0,1-.09-.13.41.41,0,0,1,.22-.53A.43.43,0,0,1,49,38M10.78,36.55A1.24,1.24,0,1,1,12,37.86a1.23,1.23,0,0,1-1.24-1.31m3.31,0v-2H13.2V35a1.55,1.55,0,0,0-1.29-.6,2.15,2.15,0,0,0,0,4.3,1.55,1.55,0,0,0,1.29-.6v.5h.89v-2Zm30.08,0a1.24,1.24,0,1,1,1.24,1.31,1.23,1.23,0,0,1-1.24-1.31m3.32,0V32.85H46.6V35a1.55,1.55,0,0,0-1.29-.6,2.15,2.15,0,0,0,0,4.3,1.55,1.55,0,0,0,1.29-.6v.5h.89ZM25.14,35.19a1,1,0,0,1,1,1H24.06a1.06,1.06,0,0,1,1.09-1m0-.8a2.15,2.15,0,0,0,.06,4.3,2.49,2.49,0,0,0,1.68-.57l-.44-.66a2,2,0,0,1-1.19.43,1.14,1.14,0,0,1-1.22-1h3c0-.11,0-.22,0-.34a2,2,0,0,0-1.94-2.15m10.75,2.15a1.24,1.24,0,1,1,1.24,1.31,1.23,1.23,0,0,1-1.24-1.31m3.32,0v-2h-.89V35A1.55,1.55,0,0,0,37,34.4a2.15,2.15,0,0,0,0,4.3,1.55,1.55,0,0,0,1.29-.6v.5h.89v-2Zm-8.34,0a2.07,2.07,0,0,0,2.18,2.15,2.14,2.14,0,0,0,1.47-.49l-.43-.72a1.8,1.8,0,0,1-1.07.37,1.31,1.31,0,0,1,0-2.62,1.8,1.8,0,0,1,1.07.37l.43-.72a2.14,2.14,0,0,0-1.47-.49,2.07,2.07,0,0,0-2.18,2.15m11.48-2.15a1.21,1.21,0,0,0-1.08.6v-.5H40.4v4.09h.89V36.3c0-.68.29-1.05.87-1.05a1.45,1.45,0,0,1,.56.1l.28-.84a1.91,1.91,0,0,0-.64-.11m-23.86.43a3.07,3.07,0,0,0-1.67-.43c-1,0-1.71.5-1.71,1.31s.5,1.08,1.41,1.21L17,37c.49.07.72.2.72.43s-.32.5-.93.5a2.19,2.19,0,0,1-1.36-.43l-.42.69a3,3,0,0,0,1.77.53c1.18,0,1.87-.56,1.87-1.34s-.54-1.1-1.43-1.22l-.42-.06c-.39,0-.69-.13-.69-.4s.29-.48.78-.48a2.65,2.65,0,0,1,1.28.35l.39-.72ZM30,34.4a1.2,1.2,0,0,0-1.08.6v-.5H28v4.09h.89V36.3c0-.68.29-1.05.87-1.05a1.45,1.45,0,0,1,.56.1l.27-.84A1.91,1.91,0,0,0,30,34.4m-7.6.1H20.93V33.26H20V34.5H19.2v.81H20v1.87c0,.95.37,1.52,1.42,1.52a2.09,2.09,0,0,0,1.11-.32l-.26-.76a1.64,1.64,0,0,1-.79.23c-.44,0-.59-.27-.59-.69V35.31h1.46ZM9.08,38.59V36A1.52,1.52,0,0,0,7.47,34.4,1.58,1.58,0,0,0,6,35.12a1.5,1.5,0,0,0-1.35-.73,1.35,1.35,0,0,0-1.2.61V34.5H2.58v4.09h.9V36.32a1,1,0,0,1,1-1.09c.59,0,.89.38.89,1.08v2.28h.9V36.32a1,1,0,0,1,1-1.09c.61,0,.9.38.9,1.08v2.28Z" fill="#231f20"/><path d="M49.41,25v-.6h-.16l-.18.41-.18-.41h-.16V25h.11v-.45l.17.39h.11l.17-.39V25h.11Zm-1,0v-.5h.2v-.1h-.51v.1h.2V25h.11Z" fill="#f79410"/><rect x="18.2" y="3.3" width="13.49" height="24.24" fill="#ff5f00"/><path d="M19.06,15.42A15.39,15.39,0,0,1,24.95,3.3a15.42,15.42,0,1,0,0,24.25,15.39,15.39,0,0,1-5.89-12.12" fill="#eb001b"/><path d="M49.9,15.42A15.42,15.42,0,0,1,24.95,27.54a15.42,15.42,0,0,0,0-24.25A15.42,15.42,0,0,1,49.9,15.42" fill="#f79e1b"/></g></g></svg>