<svg xmlns="http://www.w3.org/2000/svg" viewBox="0 0 189.73 23.25"><title>progressive</title><g id="f3e7fdf7-0bfd-4556-a769-68de3a5bf439" data-name="Layer 2"><g id="ae315388-90ca-47d6-b12a-b3338ba6a220" data-name="Layer 6"><path d="M96.56,2.64a3.48,3.48,0,0,0-3-1.45h-10l-10.37,22h5.22l4-8.61h2.76a1.78,1.78,0,0,1,1.2.63,2.89,2.89,0,0,1-.25,2.52q-1.24,2.72-2.27,5.52h5.28a11.82,11.82,0,0,1,.63-2.13l1.63-4c1-2.52-.25-3.52-1.06-4a4.91,4.91,0,0,0,4.27-2.82c.63-1.32,1.69-3.52,1.69-3.58,1-2.07.69-3.33.25-4ZM91.29,6.41l-1,1.88-.5,1.2a2.21,2.21,0,0,1-2,1.38H84.19l2.76-6h4a.74.74,0,0,1,.5.31c.19.25.13.69-.12,1.26ZM41,2.64a3.5,3.5,0,0,0-3-1.45h-10l-10.36,22h5.21l4-8.61h2.77a1.77,1.77,0,0,1,1.19.63,2.89,2.89,0,0,1-.25,2.52c-.83,1.81-1.59,3.65-2.26,5.52h5.27a11.82,11.82,0,0,1,.63-2.13l1.63-4c1-2.52-.25-3.52-1.06-4a4.91,4.91,0,0,0,4.27-2.82c.63-1.32,1.7-3.52,1.7-3.58,1-2.07.68-3.33.25-4ZM35.75,6.41l-.94,1.88-.51,1.2a2.21,2.21,0,0,1-2,1.38H28.65l2.83-6h3.89a.74.74,0,0,1,.5.31c.19.25.13.69-.12,1.26Zm17.71,12.5c1.07-2.14,2.52-5.21,4-8.48l1.75-3.77c1.83-3.9-.25-5.59-2.82-5.59H50.07A5.91,5.91,0,0,0,44.35,4.9c-.62,1.38-1.75,3.64-3,6.28l-2.7,5.53C36.06,22.3,40,23.25,42,23.25h4c4,.06,6-1.07,7.47-4.34Zm-7,.25H44.1c-.37,0-1.19-.12-.56-1.44.88-1.95,4.58-9.93,5.34-11.56C49.38,5,50,4.84,50.64,4.84h2.82c.57-.07,1.07.25.63,1.19L48.81,17.34c-.75,1.57-1.25,1.82-2.38,1.82ZM74.51,1.07H69.17A6.5,6.5,0,0,0,63,4.9c-1,2.07-5.6,11.81-5.6,11.81-1.69,3.58-.75,6.54,3.9,6.54h4.14c3.33,0,5-.51,6.48-3.77L75.77,11H67.92l-1.7,3.64h2.7L67.41,18c-.44,1-.75,1.19-1.82,1.19h-2.7c-.82,0-1.13-.44-.63-1.44L67.79,6.16c.56-1.13.88-1.32,1.7-1.32h2.82c.69,0,1.07.31.63,1.19l-1.26,2.7h5l1.13-2.39c1.63-3.58.19-5.21-3.27-5.27Zm63.2,22.11,10.43-22h-5.4L132.37,23.18Zm23.69-22L149.27,20.54l6.16-19.41h-5.59l-5.15,22.05h7.22l15.14-22ZM120,15.52l-.44-8.17c-.07-.94.19-2.32,1.94-2.32h3.65L127,1.13h-6.16c-4.83,0-6.53,3-6.34,6.47.12,2.14.44,9.11.44,9.11.06,1.7-.57,2.45-2.14,2.45h-4.15l-1.82,4h6.54c4.39,0,6.91-2.82,6.66-7.66Zm12.31,0-.44-8.17c-.06-.94.19-2.32,1.95-2.32h3.64l1.83-3.9h-6.16c-4,0-6.6,2.2-6.35,6.47.13,2.14.44,9.11.44,9.11.07,1.7-.56,2.45-2.13,2.45h-4l-1.88,4h6.47c4.78,0,6.91-3.45,6.66-7.66ZM102.15,1.13,91.85,23.18h13l1.88-4H98.82l2.83-5.84h6.66l1.76-3.71h-6.72L105.49,5h6.9l1.83-3.9Zm66.66,0-10.3,22.05h13l1.89-4h-7.92l2.83-5.84H175l1.76-3.71H170L172.14,5h6.91c.06,0,1.82-3.9,1.82-3.9ZM10.74,11.69l3.15-6.92h3.39c.69,0,1.25.38.56,1.83-.56,1.24-1.15,2.48-1.76,3.7a2.06,2.06,0,0,1-2,1.39ZM9,15.52h5.16c3.33,0,5.08-1,6.47-3.83.44-.88,1.25-2.77,2.26-4.91,1.76-3.83-.38-5.59-2.64-5.59H10.3L0,23.24H5.4ZM184.27,2.7A2.68,2.68,0,0,1,187,0a2.73,2.73,0,0,1,2.76,2.7A2.79,2.79,0,0,1,187,5.47,2.74,2.74,0,0,1,184.27,2.7Zm5.15,0A2.44,2.44,0,0,0,187,.31a2.39,2.39,0,0,0-2.39,2.39h0A2.4,2.4,0,0,0,187,5.15,2.45,2.45,0,0,0,189.42,2.7Zm-1.07,1.57h-.44L187,2.83h-.69V4.27H186V1.19h1.32a1.4,1.4,0,0,1,.75.13.78.78,0,0,1,.38.69c0,.56-.44.82-1,.82l.94,1.44ZM186.9,2.51c.44,0,1.13.13,1.13-.5s-.43-.56-.81-.56h-.88V2.51Z" fill="#28539c"/></g></g></svg>