<svg xmlns="http://www.w3.org/2000/svg" viewBox="0 0 196.27 27.29"><title>state-farm</title><g id="e7b57862-5589-4b68-b2ed-abd66b863035" data-name="Layer 2"><g id="bb891646-41b0-4905-b2d5-54ea01e380a1" data-name="Layer 6"><g id="ef9c2101-93a4-487d-8d4d-b64a9b202846" data-name="17tuQc.tif"><path d="M22.08,0c.65.13,1.3.24,1.94.4A10.51,10.51,0,0,1,29.4,3.33a5.69,5.69,0,0,1,0,8.15c-.34.37-.73.69-1.16,1.1.64-.06,1.21-.13,1.78-.15a13,13,0,0,1,8.1,2.07,6.7,6.7,0,0,1,3,3.94A5.64,5.64,0,0,1,39.46,24a10.45,10.45,0,0,1-5.73,3,13.35,13.35,0,0,1-9.95-1.61,7.37,7.37,0,0,1-3.11-3.63s-.09,0-.1.08a8.31,8.31,0,0,1-5.08,4.53,13.49,13.49,0,0,1-11.72-.78A7,7,0,0,1,.09,20.81S0,20.74,0,20.71V18.94s.08-.07.09-.11a6.51,6.51,0,0,1,2.6-4,12.67,12.67,0,0,1,8.54-2.39c.57,0,1.14.1,1.83.16-.32-.28-.54-.47-.75-.67a5.87,5.87,0,0,1,.13-9.13A11.31,11.31,0,0,1,17.68.29,5.33,5.33,0,0,0,19,0ZM10.32,25.35a12.3,12.3,0,0,0,3-.33,8.6,8.6,0,0,0,4.77-2.7,3.71,3.71,0,0,0,.08-4.94A6.21,6.21,0,0,0,16.3,15.8a11.79,11.79,0,0,0-8-1.32,8.76,8.76,0,0,0-5.08,2.45A3.83,3.83,0,0,0,2,20.49a4.51,4.51,0,0,0,1.66,2.63A10.28,10.28,0,0,0,10.32,25.35ZM20.18,13a12.74,12.74,0,0,0,4.24-.61,7.7,7.7,0,0,0,4-2.63,3.67,3.67,0,0,0,0-4.7,6.78,6.78,0,0,0-2.48-2,12.12,12.12,0,0,0-7.64-.94,8.85,8.85,0,0,0-4.88,2.42,3.85,3.85,0,0,0-.12,5.61,6.13,6.13,0,0,0,.79.74A10.23,10.23,0,0,0,20.18,13ZM30.44,14.3a10.32,10.32,0,0,0-2.12.22,8.74,8.74,0,0,0-5.09,2.72,3.78,3.78,0,0,0-.15,5,6.81,6.81,0,0,0,2.59,2,11.87,11.87,0,0,0,8.55.62,7.85,7.85,0,0,0,4.23-2.59,3.72,3.72,0,0,0,0-4.86,6.5,6.5,0,0,0-1.88-1.62A11.6,11.6,0,0,0,30.44,14.3ZM20.64,18a7.65,7.65,0,0,1,2.66-3.42,18.38,18.38,0,0,1-5.11.14A7.92,7.92,0,0,1,20.64,18Z" fill="#ed1d24"/><path d="M188.72,11c-.18-3.25-2.65-4.23-4.84-4a8.39,8.39,0,0,0-4.17,1.82l-.9.71c-.08-.2-.14-.37-.21-.53a3.27,3.27,0,0,0-3.47-2,7.42,7.42,0,0,0-2.47.74,14.21,14.21,0,0,0-2.39,1.67l-.07.06a.36.36,0,0,0,0-.09,16.65,16.65,0,0,1,.38-2.11c.07-.4-.07-.51-.44-.47l-4.82.67c-.51,2.61-1,5.72-1.53,8.33q-1,5-1.93,10c-.07.31,0,.46.33.44,1.44-.06,2.87-.11,4.31-.15a.44.44,0,0,0,.49-.42c.78-4,1.6-8,2.33-12.07a2.37,2.37,0,0,1,1.41-1.87,3.49,3.49,0,0,1,.44-.2,1.84,1.84,0,0,1,1.95.2,2,2,0,0,1,.67,1.94c-.29,1.56-.58,3.12-.89,4.67-.48,2.47-1,4.93-1.47,7.4-.07.33-.06.52.38.5,1.39-.06,2.77-.11,4.16-.14a.54.54,0,0,0,.62-.52c.78-4,1.6-8,2.33-12.07a2.21,2.21,0,0,1,1.25-1.71l.48-.24a1.86,1.86,0,0,1,2.73,2,13.38,13.38,0,0,1-.26,1.54q-1,5.34-2.12,10.67c-.08.4,0,.53.41.51,1.39-.07,2.78-.13,4.17-.16.37,0,.49-.17.55-.52q1-5.18,2-10.33A16.32,16.32,0,0,0,188.72,11Z" fill="#ed1d24"/><path d="M56.22.58a10.67,10.67,0,0,1,5.7,1.47.68.68,0,0,1,.41.85c-.28,1.25-.49,2.5-.74,3.75,0,.13,0,.33-.15.39s-.25-.17-.36-.28a5.71,5.71,0,0,0-5.71-1.85,2.72,2.72,0,0,0-2.13,2.25,2.78,2.78,0,0,0,1,2.79,17,17,0,0,0,2.33,1.53,14,14,0,0,1,2.31,1.65,6.51,6.51,0,0,1,2.15,6.07c-.59,4.26-3.31,6.84-7.62,7.31A12.18,12.18,0,0,1,45.8,25c-.75-.44-.74-.46-.57-1.33.22-1.17.45-2.33.68-3.5,0-.14,0-.33.19-.36s.2.14.29.22a7.12,7.12,0,0,0,5.28,2.3,4.55,4.55,0,0,0,2.38-.67,3.06,3.06,0,0,0,.6-4.87A9.39,9.39,0,0,0,53,15.6c-.76-.48-1.54-.93-2.27-1.45a6.64,6.64,0,0,1-2.8-7.59,7.48,7.48,0,0,1,7.26-6C55.53.57,55.87.58,56.22.58Z" fill="#ed1d24"/><path d="M137.38,1l-12.26.11c-.47,0-.62.17-.69.6l-4.69,23.93c-.12.57-.11.57.47.55l4.66-.13c.33,0,.49-.1.55-.45.58-3.15,1.18-6.29,1.75-9.44.06-.35.18-.45.52-.44,1.85,0,3.7,0,5.55,0,.37,0,.55-.1.64-.49.26-1.09.54-2.18.87-3.26.14-.46,0-.53-.41-.51-2,.07-3.93.12-5.89.18-.26,0-.42,0-.35-.35q.59-2.81,1.11-5.62c.06-.34.19-.41.5-.4,2.28,0,4.55,0,6.82,0a.54.54,0,0,0,.65-.53c.2-1.09.39-2.19.64-3.27C137.91,1.06,137.81,1,137.38,1Z" fill="#ed1d24"/><path d="M142.9,24.06a8.9,8.9,0,0,1-3.63,2.41,5.71,5.71,0,0,1-3,.19,4.08,4.08,0,0,1-3.16-3.59,7.39,7.39,0,0,1,1.14-5.28A6.68,6.68,0,0,1,138,15.22a27.06,27.06,0,0,1,6.31-1.07c.44,0,.55-.21.59-.58A2.2,2.2,0,0,0,143.16,11a7.86,7.86,0,0,0-4.72.34l-1.69.65c-.15,0-.29.17-.45,0s0-.31,0-.46c.21-1.05.42-2.11.61-3.17a.56.56,0,0,1,.44-.52,18.65,18.65,0,0,1,8.43-.51,5.32,5.32,0,0,1,2.48,1.11,4,4,0,0,1,1.46,3.38,24.21,24.21,0,0,1-.64,4c-.64,3.25-1.3,6.49-1.93,9.75-.07.33-.18.47-.53.48-1.21,0-2.42.09-3.63.14-.35,0-.48-.1-.39-.46S142.78,24.7,142.9,24.06Zm-3-1a2.44,2.44,0,0,0,.74-.1,4.27,4.27,0,0,0,2.91-2.3,13.37,13.37,0,0,0,.66-3.14c.05-.23-.1-.24-.26-.22a13.19,13.19,0,0,0-4.25.86,3.06,3.06,0,0,0-1.82,2.05A2.12,2.12,0,0,0,139.86,23.06Z" fill="#ed1d24"/><path d="M82.74,24.11c-.41.36-.74.69-1.11,1a7,7,0,0,1-4.35,1.68A4.11,4.11,0,0,1,72.91,23,7.35,7.35,0,0,1,74,17.86a6.65,6.65,0,0,1,3.88-2.65,28.15,28.15,0,0,1,6.31-1.07c.4,0,.54-.16.57-.53A2.2,2.2,0,0,0,83,11a7.78,7.78,0,0,0-4.72.35L76.54,12c-.14.05-.27.12-.41,0s0-.24,0-.37c.21-1.09.43-2.18.63-3.27a.55.55,0,0,1,.4-.49,17.61,17.61,0,0,1,8.91-.41,4.2,4.2,0,0,1,3.41,3.27,7.6,7.6,0,0,1-.16,3.11Q88.13,19.72,87,25.57c-.06.34-.19.46-.54.47-1.19,0-2.38.08-3.57.14-.43,0-.51-.14-.43-.52S82.63,24.68,82.74,24.11Zm.54-6.77a12.54,12.54,0,0,0-3.76.82,3,3,0,0,0-1.84,2.08A2.12,2.12,0,0,0,80.1,23a5,5,0,0,0,3.27-2.3,1.1,1.1,0,0,0,.13-.41c.15-.76.28-1.51.42-2.26S84.07,17.27,83.28,17.34Z" fill="#ed1d24"/><path d="M117.08,12a5.17,5.17,0,0,0-4-4.72c-3.5-.83-6.56,0-8.81,2.89A13.25,13.25,0,0,0,101.73,21a6,6,0,0,0,4.63,5.15,9.72,9.72,0,0,0,1.78.29,11.47,11.47,0,0,0,6-1,1.09,1.09,0,0,0,.65-.89c.21-1.19.46-2.37.67-3.56,0-.16.21-.38,0-.5s-.33.14-.49.22a.57.57,0,0,0-.16.11,7.76,7.76,0,0,1-5.1,1.7c-1.92-.12-3.1-1.06-3.37-2.74a8.88,8.88,0,0,1,0-1.46c0-.36.12-.49.48-.48h4.66v-.1c1.5,0,3,0,4.51,0,.45,0,.63-.14.71-.58A17.52,17.52,0,0,0,117.08,12Zm-4.28,2.21c0,.23-.14.28-.36.28l-5.1.05c-.38,0-.42-.1-.32-.45a6.06,6.06,0,0,1,1.64-2.9,3.2,3.2,0,0,1,1.34-.79,2.21,2.21,0,0,1,2.94,2A6.88,6.88,0,0,1,112.8,14.22Z" fill="#ed1d24"/><path d="M101.64,7.41c-.38,0-.76,0-1.13,0v.06a9.73,9.73,0,0,0-1.08,0c-.41,0-.45-.11-.36-.47q.63-2.76,1.23-5.54c0-.13.16-.28,0-.41s-.28,0-.4.05l-5,2.16c-.22,1.27-.5,2.53-.74,3.79-.05.28-.15.38-.44.37-.57,0-1.14,0-1.71,0a.43.43,0,0,0-.5.41c-.18,1-.37,2-.56,3-.06.31,0,.43.34.42.54,0,1.08,0,1.62-.08.34,0,.41.06.33.39l-2,10.47c-.16,2.23.83,3.71,2.85,4.18a9.81,9.81,0,0,0,4.41-.15.58.58,0,0,0,.46-.52l.6-3.38c-.22-.23-.53.18-.83.2h0c-1.56.45-2.56-.38-2.31-2,.46-3,1.23-5.94,1.81-8.92,0-.27.19-.32.44-.31.75,0,1.5.05,2.25.08.27,0,.46-.07.51-.34.21-1.06.41-2.12.61-3.18C102,7.47,101.92,7.39,101.64,7.41Z" fill="#ed1d24"/><path d="M73.54,7.42c-.72,0-1.44,0-2.15.06-.33,0-.46,0-.37-.41.44-1.86.84-3.73,1.25-5.59,0-.14.13-.3,0-.42s-.28,0-.41.05l-5,2c-.24,1.31-.53,2.62-.77,3.94-.06.31-.18.43-.51.41-.56,0-1.11,0-1.67,0-.22,0-.42,0-.47.3-.19,1-.39,2.09-.59,3.13-.06.34.09.44.41.42.54,0,1.08,0,1.61-.08.3,0,.35.05.28.35q-.75,3.42-1.46,6.84a17.63,17.63,0,0,0-.55,4.51,3.37,3.37,0,0,0,2.75,3.32,9.69,9.69,0,0,0,4.51-.14.57.57,0,0,0,.44-.52l.64-3.51-.68.28c-1.63.62-2.71-.2-2.55-1.91,0-.07,0-.13,0-.2.54-2.92,1.22-5.81,1.81-8.72.06-.25.16-.31.39-.3.72,0,1.44,0,2.16.08a.56.56,0,0,0,.7-.54c.16-1,.34-1.93.55-2.89C74,7.45,73.87,7.41,73.54,7.42Z" fill="#ed1d24"/><path d="M163.53,6.66a5.94,5.94,0,0,0-2.87.86,17,17,0,0,0-2.89,2.15c.17-.89.32-1.66.48-2.43.07-.32,0-.47-.37-.44l-4.61,1-3.49,17.92c-.06.27-.11.52.33.5,1.35-.05,2.71-.1,4.06-.13a.44.44,0,0,0,.49-.42q1-5.14,2-10.29a1.85,1.85,0,0,1,.42-.92,5.85,5.85,0,0,1,5.29-2.06c.46.05.65-.09.73-.55.28-1.55.59-3.11.9-4.66C164,6.77,163.9,6.66,163.53,6.66Z" fill="#ed1d24"/><path d="M196.27,10.7a2.75,2.75,0,1,1-5.49,0,2.75,2.75,0,1,1,5.49,0Zm-.37,0a2.38,2.38,0,1,0-4.75.06,2.45,2.45,0,0,0,2.4,2.51A2.48,2.48,0,0,0,195.9,10.67Z" fill="#ed1d24"/><path d="M10.52,24.2c.29,0,.7,0,1.1-.07a8.91,8.91,0,0,0,4.87-1.85,3,3,0,0,0,.16-4.81A6.55,6.55,0,0,0,16,17a9.38,9.38,0,0,0-4.76-1.47A10.07,10.07,0,0,0,4.77,17c-2.29,1.57-2.3,4,0,5.58.2.14.41.28.62.4A10.54,10.54,0,0,0,10.52,24.2Z" fill="#ed1d24"/><path d="M20.6,11.79a9,9,0,0,0,1.8-.12,8.6,8.6,0,0,0,4.37-1.83,3,3,0,0,0,0-4.87,5.4,5.4,0,0,0-1-.73,11.11,11.11,0,0,0-7.47-1,7.34,7.34,0,0,0-4,2,2.89,2.89,0,0,0,0,4.28,5,5,0,0,0,.9.75A9.73,9.73,0,0,0,20.6,11.79Z" fill="#ed1d24"/><path d="M30.68,15.44c-.28,0-.71,0-1.13.07a8.78,8.78,0,0,0-4.79,1.8,3,3,0,0,0-.11,4.9,6.41,6.41,0,0,0,1.42.95,10.81,10.81,0,0,0,6.21.94,8.45,8.45,0,0,0,4.62-1.84,3,3,0,0,0,0-4.93,6.44,6.44,0,0,0-1-.67A10.76,10.76,0,0,0,30.68,15.44Z" fill="#ed1d24"/><path d="M10.52,24.2A10.54,10.54,0,0,1,5.36,23c-.21-.12-.42-.26-.62-.4-2.27-1.61-2.26-4,0-5.58a10.07,10.07,0,0,1,6.46-1.53A9.38,9.38,0,0,1,16,17a6.55,6.55,0,0,1,.66.52,3,3,0,0,1-.16,4.81,8.91,8.91,0,0,1-4.87,1.85C11.22,24.18,10.81,24.18,10.52,24.2Z" fill="#ed1d24"/><path d="M20.6,11.79a9.73,9.73,0,0,1-5.49-1.49,5,5,0,0,1-.9-.75,2.89,2.89,0,0,1,0-4.28,7.34,7.34,0,0,1,4-2,11.11,11.11,0,0,1,7.47,1,5.4,5.4,0,0,1,1,.73,3,3,0,0,1,0,4.87,8.6,8.6,0,0,1-4.37,1.83A9,9,0,0,1,20.6,11.79Z" fill="#ed1d24"/><path d="M30.68,15.44a10.76,10.76,0,0,1,5.23,1.22,6.44,6.44,0,0,1,1,.67,3,3,0,0,1,0,4.93,8.45,8.45,0,0,1-4.62,1.84,10.81,10.81,0,0,1-6.21-.94,6.41,6.41,0,0,1-1.42-.95,3,3,0,0,1,.11-4.9,8.78,8.78,0,0,1,4.79-1.8C30,15.47,30.4,15.46,30.68,15.44Z" fill="#ed1d24"/><path d="M194.64,12.3c-.3.13-.45,0-.54-.24a9,9,0,0,1-.34-.86c-.1-.39-.38-.37-.65-.33s-.15.31-.17.47a6.71,6.71,0,0,0,0,.78c0,.13,0,.22-.18.23s-.23-.09-.23-.24c0-.95,0-1.9,0-2.84,0-.18.08-.23.24-.22a5.8,5.8,0,0,1,1.18.06.82.82,0,0,1,.7.66.74.74,0,0,1-.33.85c-.28.16-.24.32-.14.55S194.49,11.92,194.64,12.3Zm-1.7-2.37c0,.3-.13.63.41.59s.9-.15.9-.56-.24-.5-.9-.56C192.85,9.36,192.93,9.66,192.94,9.93Z" fill="#ed1d24"/></g></g></g></svg>