<svg xmlns="http://www.w3.org/2000/svg" viewBox="0 0 85.29 88.23"><title>usaa</title><g id="b8dfbc19-ff77-4e88-8546-4054f0c967bd" data-name="Layer 2"><g id="a551acbb-7c01-4d74-8c51-f2794d189eeb" data-name="Layer 8"><path d="M.24,64.41V78.84c0,8.06,4.93,9.39,9,9.39,6.08,0,8.9-4,8.9-9.47V64.41h-4V79.24c0,1.88-.61,5.38-4.87,5.31-3.89-.07-4.6-3.65-4.6-5.94V64.41Z" fill="#003a63"/><path d="M35,65.35a13.87,13.87,0,0,0-5.5-1.28c-3.64,0-8.21,1.88-8.21,7,0,3.55,2.6,5.23,4.38,6.1.94.46,2.09,1,3,1.48.48.26,2.42.92,2.42,3s-2.46,3-3.56,3A12.8,12.8,0,0,1,21,82.87l.41,4.5s1.6.81,6.41.82c4.59,0,7.89-3,7.89-7a6.5,6.5,0,0,0-3.94-5.86c-1.44-.71-2.27-1.08-3.51-1.67s-2.53-1.6-2.53-3.18,1.53-2.89,3.8-2.89a8.3,8.3,0,0,1,5.5,2Z" fill="#003a63"/><path d="M62.62,80.48l3.2-9.15,2.87,9.15Zm-19.33,0,3.22-9.15,2.86,9.15ZM67.82,64.37H63l.77,1.95L56.25,86.38l-7.75-22H43.67l.77,1.95-8,21.39H40.8l1.4-4.07h8.28l1.39,4.07h8.25l1.4-4.07H69.8l1.39,4.07H76Z" fill="#003a63"/><path d="M0,38.15l.2,7.3A7.27,7.27,0,0,1,4,44.12a9.58,9.58,0,0,1,4.27,1.45L26.18,56.05l1.51-6.59L8.26,38.09A9.61,9.61,0,0,0,4,36.66a7.82,7.82,0,0,0-4,1.49" fill="#003a63"/><path d="M0,28.62l.2,7.29A7.3,7.3,0,0,1,4,34.59,9.63,9.63,0,0,1,8.26,36L28.11,47.65l1.51-6.59L8.26,28.56A9.57,9.57,0,0,0,4,27.12a7.79,7.79,0,0,0-4,1.5" fill="#003a63"/><path d="M0,19.09l.2,7.29A7.3,7.3,0,0,1,4,25.06a9.67,9.67,0,0,1,4.27,1.43L30.05,39.25l1.51-6.6L8.26,19A9.61,9.61,0,0,0,4,17.59a7.79,7.79,0,0,0-4,1.5" fill="#003a63"/><path d="M37.35,7.48l2,8.61,27.29,16a9.06,9.06,0,0,0,4.26,1.43,7.4,7.4,0,0,0,4-1.5l-.21-7.29A7,7,0,0,1,70.89,26a9.18,9.18,0,0,1-4.26-1.44L45.52,12.22,44.06,6.68a.39.39,0,0,1,.29-.36L47.92,5.2a.76.76,0,0,1,.76.76l.19.4c.13.07.67-.2.71-.22V4a2.71,2.71,0,0,0-2.72-2.73H43.29a2.21,2.21,0,0,0-2-1.23H34.47a2.31,2.31,0,0,0-2.23,1.69L27.53,20.77,8.26,9.49A8.73,8.73,0,0,0,4,8.05a7.1,7.1,0,0,0-4,1.5l.2,7.29A6.56,6.56,0,0,1,4,15.52,8.73,8.73,0,0,1,8.26,17L32,30.84Z" fill="#003a63"/><path d="M39.88,18.45l2,8.64L66.64,41.58A9.33,9.33,0,0,0,70.89,43a7.72,7.72,0,0,0,4-1.51l-.21-7.29a6.48,6.48,0,0,1-3.79,1.32,8.51,8.51,0,0,1-4.25-1.43Z" fill="#003a63"/><path d="M42.42,29.47l2,8.64,22.22,13a9.45,9.45,0,0,0,4.26,1.44,7.71,7.71,0,0,0,4-1.5l-.21-7.29a6.51,6.51,0,0,1-3.79,1.31,8.57,8.57,0,0,1-4.26-1.43Z" fill="#003a63"/><path d="M45,40.49l2,8.64L66.63,60.65a9.45,9.45,0,0,0,4.26,1.44,7.72,7.72,0,0,0,4-1.51l-.21-7.29a6.48,6.48,0,0,1-3.79,1.32,8.53,8.53,0,0,1-4.26-1.44Z" fill="#003a63"/><path d="M80.51,63.05a4.87,4.87,0,1,1-4.83,4.85,4.8,4.8,0,0,1,4.83-4.85Zm0,.75a4.12,4.12,0,0,0,0,8.22,4.12,4.12,0,0,0,0-8.22Zm-.9,6.93h-.87V65.31a10.44,10.44,0,0,1,1.54-.13,2.81,2.81,0,0,1,1.68.41,1.32,1.32,0,0,1,.5,1.12A1.35,1.35,0,0,1,81.38,68v0c.48.09.8.52.91,1.32a4.8,4.8,0,0,0,.34,1.34h-.9a4,4,0,0,1-.37-1.38,1,1,0,0,0-1.17-.95h-.6Zm0-3h.62c.72,0,1.32-.26,1.32-.93,0-.47-.34-1-1.32-1a4.44,4.44,0,0,0-.62,0Z" fill="#003a63"/></g></g></svg>