<svg xmlns="http://www.w3.org/2000/svg" viewBox="0 0 57.39 18.62"><title>visa</title><g id="1e2288da-0e7b-448a-92f2-c867adcc7197" data-name="Layer 2"><g id="8569d549-5225-4620-aac6-bbaf1da07473" data-name="Layer 1"><path d="M24.88,18.31H20.2l2.93-18h4.68ZM16.26.32,11.79,12.69,11.26,10h0L9.69,1.94A2,2,0,0,0,7.47.32H.09L0,.63A17.53,17.53,0,0,1,4.9,2.68L9,18.31h4.88L21.3.32Zm36.83,18h4.3L53.64.32H49.88a2.15,2.15,0,0,0-2.16,1.34l-7,16.65h4.88l1-2.67h6Zm-5.15-6.36L50.4,5.21l1.38,6.73ZM41.1,4.65,41.76.78A13.52,13.52,0,0,0,37.55,0c-2.32,0-7.84,1-7.84,6,0,4.65,6.48,4.7,6.48,7.14s-5.81,2-7.73.47l-.7,4a13.12,13.12,0,0,0,5.29,1c3.19,0,8-1.65,8-6.16,0-4.68-6.54-5.11-6.54-7.14s4.56-1.77,6.57-.67" fill="#2566af"/></g></g></svg>